<?xml version="1.0" encoding="UTF-8"?>
<svg id="Layer_1" data-name="Layer 1" xmlns="http://www.w3.org/2000/svg" viewBox="0 0 1080 1080">
  <defs>
    <style>
      .cls-1 {
        stroke: #e4c472;
        stroke-miterlimit: 10;
        stroke-width: 1.38px;
      }

      .cls-1, .cls-2 {
        fill: #e2be64;
      }

      .cls-3 {
        fill: #fff;
      }

      .cls-4 {
        fill: #20344b;
      }

      .cls-5 {
        opacity: .8;
      }

      .cls-6 {
        fill: #e4c472;
      }

      .cls-7 {
        fill: #54a7ed;
      }
    </style>
  </defs>
  <circle class="cls-4" cx="540" cy="540" r="540"/>
  <g>
    <g>
      <path class="cls-3" d="M166.46,480.25v-135.04h49.23c9.05,0,16.94,1.82,23.67,5.47,6.72,3.65,11.98,8.68,15.75,15.09,3.77,6.41,5.66,13.77,5.66,22.07,0,6.16-1.29,11.79-3.87,16.88-2.58,5.09-6.1,9.5-10.56,13.2-4.46,3.71-9.68,6.57-15.65,8.58-5.97,2.01-12.35,3.02-19.14,3.02h-30.93v-23.39h34.89c3.9,0,7.29-.82,10.19-2.45,2.89-1.63,5.19-3.87,6.88-6.7,1.7-2.83,2.55-6,2.55-9.52,0-3.27-.73-6.32-2.17-9.15-1.45-2.83-3.62-5.12-6.51-6.88-2.89-1.76-6.41-2.64-10.56-2.64h-23.95v111.47h-25.46ZM196.26,418.95h29.8l41.87,59.79v1.51h-29.23l-42.44-61.3Z"/>
      <path class="cls-3" d="M320.18,483.27c-9.68,0-18.33-2.2-25.93-6.6-7.61-4.4-13.58-10.44-17.92-18.11-4.34-7.67-6.51-16.41-6.51-26.22,0-9.18,2.14-17.66,6.41-25.46,4.27-7.79,10.12-14.05,17.54-18.77,7.42-4.72,15.91-7.07,25.46-7.07,10.31,0,18.98,2.2,26.03,6.6,7.04,4.4,12.38,10.28,16.03,17.63,3.65,7.36,5.47,15.5,5.47,24.42,0,2.01-.06,3.74-.19,5.19-.13,1.45-.25,2.48-.38,3.11h-82.61v-17.54h59.41c-.13-2.14-.75-4.34-1.89-6.6-1.13-2.26-2.7-4.34-4.72-6.22-2.01-1.89-4.43-3.42-7.26-4.62-2.83-1.19-6.07-1.79-9.71-1.79-4.78,0-9.15,1.26-13.11,3.77-3.96,2.52-7.07,6.01-9.34,10.47-2.26,4.46-3.4,9.78-3.4,15.94s1.19,11.85,3.58,16.31c2.39,4.46,5.63,7.86,9.71,10.18,4.08,2.33,8.64,3.49,13.67,3.49,5.91,0,10.87-1.29,14.9-3.87,4.02-2.58,7.17-5.81,9.43-9.71l19.99,9.81c-4.53,7.92-10.44,14.18-17.73,18.77-7.29,4.59-16.29,6.88-26.97,6.88Z"/>
      <path class="cls-3" d="M422.4,483.27c-8.8,0-16.72-2.17-23.77-6.51-7.04-4.34-12.61-10.34-16.69-18.01-4.09-7.67-6.13-16.53-6.13-26.59s2.04-18.92,6.13-26.59c4.08-7.67,9.65-13.67,16.69-18.01,7.04-4.34,14.96-6.51,23.77-6.51,4.65,0,8.86.69,12.64,2.07,3.77,1.39,7.04,3.21,9.81,5.47,2.76,2.26,4.9,4.65,6.41,7.17h1.51l-1.51-13.58v-36.97h24.52v135.04h-23.01v-11.51h-1.51c-1.51,2.52-3.65,4.87-6.41,7.07-2.77,2.2-6.04,3.99-9.81,5.38-3.77,1.38-7.99,2.07-12.64,2.07ZM426.55,460.45c4.65,0,8.96-1.19,12.92-3.58,3.96-2.39,7.17-5.69,9.62-9.9,2.45-4.21,3.68-9.15,3.68-14.81s-1.23-10.59-3.68-14.81c-2.45-4.21-5.66-7.48-9.62-9.81-3.96-2.32-8.27-3.49-12.92-3.49s-8.77,1.16-12.73,3.49c-3.96,2.33-7.17,5.56-9.62,9.71-2.45,4.15-3.68,9.12-3.68,14.9s1.23,10.63,3.68,14.9c2.45,4.28,5.66,7.58,9.62,9.9,3.96,2.33,8.2,3.49,12.73,3.49Z"/>
      <path class="cls-3" d="M538.59,483.27c-9.68,0-18.33-2.2-25.93-6.6-7.61-4.4-13.58-10.44-17.92-18.11-4.34-7.67-6.51-16.41-6.51-26.22,0-9.18,2.14-17.66,6.41-25.46,4.27-7.79,10.12-14.05,17.54-18.77,7.42-4.72,15.91-7.07,25.46-7.07,10.31,0,18.98,2.2,26.03,6.6,7.04,4.4,12.38,10.28,16.03,17.63,3.65,7.36,5.47,15.5,5.47,24.42,0,2.01-.06,3.74-.19,5.19-.13,1.45-.25,2.48-.38,3.11h-82.61v-17.54h59.41c-.13-2.14-.75-4.34-1.89-6.6-1.13-2.26-2.7-4.34-4.72-6.22-2.01-1.89-4.43-3.42-7.26-4.62-2.83-1.19-6.07-1.79-9.71-1.79-4.78,0-9.15,1.26-13.11,3.77-3.96,2.52-7.07,6.01-9.34,10.47-2.26,4.46-3.4,9.78-3.4,15.94s1.19,11.85,3.58,16.31c2.39,4.46,5.63,7.86,9.71,10.18,4.08,2.33,8.64,3.49,13.67,3.49,5.91,0,10.87-1.29,14.9-3.87,4.02-2.58,7.17-5.81,9.43-9.71l19.99,9.81c-4.53,7.92-10.44,14.18-17.73,18.77-7.29,4.59-16.29,6.88-26.97,6.88Z"/>
      <path class="cls-3" d="M589.89,405.19v-21.12h79.97v21.12h-79.97ZM631.76,380.29v99.96h-24.71v-101.47c0-7.54,1.54-13.92,4.62-19.14,3.08-5.22,7.29-9.18,12.64-11.88,5.34-2.7,11.41-4.05,18.2-4.05,2.64,0,4.81.13,6.51.38,1.7.25,3.05.5,4.06.75v23.76c-.88-.25-2.05-.6-3.49-1.04-1.45-.44-3.3-.66-5.56-.66-2.39,0-4.5.54-6.32,1.6-1.82,1.07-3.27,2.61-4.34,4.62-1.07,2.01-1.6,4.4-1.6,7.17ZM682.31,373.5c-4.4,0-8.17-1.57-11.32-4.72-3.14-3.14-4.72-6.91-4.72-11.32s1.57-8.14,4.72-11.22c3.14-3.08,6.91-4.62,11.32-4.62s8.14,1.54,11.22,4.62c3.08,3.08,4.62,6.82,4.62,11.22s-1.54,8.18-4.62,11.32c-3.08,3.14-6.82,4.72-11.22,4.72ZM669.86,480.25v-96.19h24.71v96.19h-24.71Z"/>
      <path class="cls-3" d="M714.56,480.25v-96.19h23.2v12.07h1.51c2.89-4.65,6.98-8.33,12.26-11.03,5.28-2.7,11-4.06,17.16-4.06,11.82,0,20.68,3.58,26.59,10.75,5.91,7.17,8.86,16.72,8.86,28.67v59.79h-24.71v-56.77c0-6.29-1.6-11.1-4.81-14.43-3.21-3.33-7.58-5-13.11-5-4.53,0-8.46,1.23-11.79,3.68-3.33,2.45-5.91,5.72-7.73,9.81-1.82,4.09-2.74,8.65-2.74,13.67v49.04h-24.71Z"/>
      <path class="cls-3" d="M866.95,483.27c-9.68,0-18.33-2.2-25.93-6.6-7.61-4.4-13.58-10.44-17.92-18.11-4.34-7.67-6.51-16.41-6.51-26.22,0-9.18,2.14-17.66,6.41-25.46,4.27-7.79,10.12-14.05,17.54-18.77,7.42-4.72,15.91-7.07,25.46-7.07,10.31,0,18.98,2.2,26.03,6.6,7.04,4.4,12.38,10.28,16.03,17.63,3.65,7.36,5.47,15.5,5.47,24.42,0,2.01-.06,3.74-.19,5.19-.13,1.45-.25,2.48-.38,3.11h-82.61v-17.54h59.41c-.13-2.14-.75-4.34-1.89-6.6-1.13-2.26-2.7-4.34-4.72-6.22-2.01-1.89-4.43-3.42-7.26-4.62-2.83-1.19-6.07-1.79-9.71-1.79-4.78,0-9.15,1.26-13.11,3.77-3.96,2.52-7.07,6.01-9.34,10.47-2.26,4.46-3.4,9.78-3.4,15.94s1.19,11.85,3.58,16.31c2.39,4.46,5.63,7.86,9.71,10.18,4.08,2.33,8.64,3.49,13.67,3.49,5.91,0,10.87-1.29,14.9-3.87,4.02-2.58,7.17-5.81,9.43-9.71l19.99,9.81c-4.53,7.92-10.44,14.18-17.73,18.77-7.29,4.59-16.29,6.88-26.97,6.88Z"/>
      <path class="cls-7" d="M166.46,664.53v-135.04h47.53c8.68,0,16.47,1.79,23.39,5.38,6.91,3.58,12.42,8.58,16.5,14.99,4.08,6.41,6.13,13.83,6.13,22.26s-2.05,15.88-6.13,22.35c-4.09,6.48-9.59,11.51-16.5,15.09-6.92,3.58-14.71,5.38-23.39,5.38h-33.38v-24.14h34.14c4.4,0,8.11-.88,11.13-2.64,3.02-1.76,5.28-4.06,6.79-6.88,1.51-2.83,2.26-5.88,2.26-9.15s-.75-6.29-2.26-9.05c-1.51-2.76-3.77-5.03-6.79-6.79-3.02-1.76-6.73-2.64-11.13-2.64h-22.82v110.9h-25.46Z"/>
      <path class="cls-7" d="M311.88,667.55c-10.06,0-18.96-2.23-26.69-6.7-7.73-4.46-13.77-10.56-18.11-18.3-4.34-7.73-6.51-16.44-6.51-26.12s2.17-18.39,6.51-26.12c4.34-7.73,10.37-13.83,18.11-18.29,7.73-4.46,16.63-6.7,26.69-6.7s18.92,2.26,26.59,6.79c7.67,4.53,13.67,10.63,18.01,18.29,4.34,7.67,6.51,16.35,6.51,26.03s-2.17,18.39-6.51,26.12c-4.34,7.73-10.34,13.83-18.01,18.3-7.67,4.46-16.54,6.7-26.59,6.7ZM311.88,644.54c4.78,0,9.15-1.1,13.11-3.3,3.96-2.2,7.17-5.4,9.62-9.62,2.45-4.21,3.68-9.27,3.68-15.18s-1.23-10.94-3.68-15.09c-2.45-4.15-5.66-7.36-9.62-9.62s-8.33-3.4-13.11-3.4-9.02,1.13-13.11,3.4c-4.09,2.26-7.36,5.47-9.81,9.62-2.45,4.15-3.68,9.18-3.68,15.09s1.23,10.97,3.68,15.18c2.45,4.21,5.72,7.42,9.81,9.62,4.08,2.2,8.46,3.3,13.11,3.3Z"/>
      <path class="cls-7" d="M411.84,667.55c-8.3,0-15.37-1.2-21.22-3.58-5.85-2.39-10.59-5.53-14.24-9.43-3.65-3.9-6.35-8.17-8.11-12.83l22.07-9.62c2.14,4.53,5.03,7.95,8.68,10.28,3.65,2.33,7.92,3.49,12.83,3.49,4.02,0,7.67-.66,10.94-1.98,3.27-1.32,4.9-3.74,4.9-7.26,0-2.51-.85-4.49-2.55-5.94-1.7-1.44-3.8-2.58-6.32-3.39-2.52-.82-5.09-1.48-7.73-1.98l-11.32-2.45c-4.65-1.01-9.05-2.8-13.2-5.38-4.15-2.58-7.51-5.85-10.09-9.81-2.58-3.96-3.87-8.52-3.87-13.67,0-5.78,1.66-10.81,5-15.09,3.33-4.27,7.86-7.61,13.58-10,5.72-2.39,12.04-3.58,18.96-3.58,6.41,0,12.19.75,17.35,2.26,5.15,1.51,9.62,3.8,13.39,6.88,3.77,3.08,6.79,7.01,9.05,11.79l-21.12,9.24c-2.01-3.77-4.62-6.41-7.83-7.92-3.21-1.51-6.63-2.26-10.28-2.26-4.28,0-7.67.82-10.19,2.45-2.52,1.64-3.77,3.58-3.77,5.85,0,2.39,1.26,4.46,3.77,6.22,2.51,1.76,5.53,3.08,9.05,3.96l14.15,3.39c9.55,2.26,16.75,5.91,21.6,10.94,4.84,5.03,7.26,11.07,7.26,18.11,0,6.29-1.82,11.79-5.47,16.5-3.65,4.72-8.55,8.36-14.71,10.94-6.16,2.58-13.01,3.87-20.56,3.87Z"/>
      <path class="cls-7" d="M501.43,667.55c-8.3,0-15.37-1.2-21.22-3.58-5.85-2.39-10.59-5.53-14.24-9.43-3.65-3.9-6.35-8.17-8.11-12.83l22.07-9.62c2.14,4.53,5.03,7.95,8.68,10.28,3.65,2.33,7.92,3.49,12.83,3.49,4.02,0,7.67-.66,10.94-1.98,3.27-1.32,4.9-3.74,4.9-7.26,0-2.51-.85-4.49-2.55-5.94-1.7-1.44-3.8-2.58-6.32-3.39-2.52-.82-5.09-1.48-7.73-1.98l-11.32-2.45c-4.65-1.01-9.05-2.8-13.2-5.38-4.15-2.58-7.51-5.85-10.09-9.81-2.58-3.96-3.87-8.52-3.87-13.67,0-5.78,1.66-10.81,5-15.09,3.33-4.27,7.86-7.61,13.58-10,5.72-2.39,12.04-3.58,18.95-3.58,6.41,0,12.19.75,17.35,2.26,5.15,1.51,9.62,3.8,13.39,6.88,3.77,3.08,6.79,7.01,9.05,11.79l-21.12,9.24c-2.01-3.77-4.62-6.41-7.83-7.92-3.21-1.51-6.63-2.26-10.28-2.26-4.28,0-7.67.82-10.19,2.45-2.52,1.64-3.77,3.58-3.77,5.85,0,2.39,1.26,4.46,3.77,6.22,2.51,1.76,5.53,3.08,9.05,3.96l14.15,3.39c9.55,2.26,16.75,5.91,21.6,10.94,4.84,5.03,7.26,11.07,7.26,18.11,0,6.29-1.82,11.79-5.47,16.5-3.65,4.72-8.55,8.36-14.71,10.94-6.16,2.58-13.01,3.87-20.56,3.87Z"/>
      <path class="cls-7" d="M567.44,557.78c-4.4,0-8.17-1.57-11.32-4.72-3.14-3.14-4.72-6.91-4.72-11.32s1.57-8.14,4.72-11.22c3.14-3.08,6.91-4.62,11.32-4.62s8.14,1.54,11.22,4.62c3.08,3.08,4.62,6.82,4.62,11.22s-1.54,8.18-4.62,11.32c-3.08,3.14-6.82,4.72-11.22,4.72ZM554.99,664.53v-96.19h24.71v96.19h-24.71Z"/>
      <path class="cls-7" d="M653.26,667.55c-4.65,0-8.86-.69-12.64-2.07-3.77-1.38-7.01-3.17-9.71-5.38-2.7-2.2-4.87-4.56-6.51-7.07h-1.51v11.51h-23.2v-135.04h24.71v36.97l-1.51,13.58h1.51c1.63-2.51,3.8-4.9,6.51-7.17,2.7-2.26,5.94-4.08,9.71-5.47,3.77-1.38,7.98-2.07,12.64-2.07,8.8,0,16.69,2.17,23.67,6.51,6.98,4.34,12.51,10.34,16.6,18.01,4.08,7.67,6.13,16.54,6.13,26.59s-2.05,18.93-6.13,26.59c-4.09,7.67-9.62,13.67-16.6,18.01-6.98,4.34-14.87,6.51-23.67,6.51ZM648.92,644.73c4.65,0,8.96-1.16,12.92-3.49,3.96-2.33,7.17-5.63,9.62-9.9,2.45-4.27,3.68-9.24,3.68-14.9s-1.23-10.75-3.68-14.9c-2.45-4.15-5.66-7.39-9.62-9.71-3.96-2.32-8.27-3.49-12.92-3.49s-8.77,1.16-12.73,3.49c-3.96,2.33-7.17,5.6-9.62,9.81-2.45,4.21-3.68,9.15-3.68,14.81s1.23,10.59,3.68,14.81c2.45,4.21,5.66,7.51,9.62,9.9,3.96,2.39,8.2,3.58,12.73,3.58Z"/>
      <path class="cls-7" d="M712.29,664.53v-135.04h24.71v135.04h-24.71Z"/>
      <path class="cls-7" d="M799.81,667.55c-9.68,0-18.33-2.2-25.93-6.6-7.61-4.4-13.58-10.44-17.92-18.11-4.34-7.67-6.51-16.41-6.51-26.22,0-9.18,2.14-17.66,6.41-25.46,4.27-7.79,10.12-14.05,17.54-18.77,7.42-4.72,15.91-7.07,25.46-7.07,10.31,0,18.98,2.2,26.03,6.6,7.04,4.4,12.38,10.28,16.03,17.63,3.65,7.36,5.47,15.5,5.47,24.42,0,2.01-.06,3.74-.19,5.19-.13,1.45-.25,2.48-.38,3.11h-82.61v-17.54h59.41c-.13-2.14-.75-4.34-1.89-6.6-1.13-2.26-2.7-4.34-4.72-6.22-2.01-1.89-4.43-3.42-7.26-4.62-2.83-1.19-6.07-1.79-9.71-1.79-4.78,0-9.15,1.26-13.11,3.77-3.96,2.52-7.07,6.01-9.34,10.47-2.26,4.46-3.4,9.78-3.4,15.94s1.19,11.85,3.58,16.31c2.39,4.46,5.63,7.86,9.71,10.18,4.08,2.33,8.64,3.49,13.67,3.49,5.91,0,10.87-1.29,14.9-3.87,4.02-2.58,7.17-5.81,9.43-9.71l19.99,9.81c-4.53,7.92-10.44,14.18-17.73,18.77-7.29,4.59-16.29,6.88-26.97,6.88Z"/>
    </g>
    <g>
      <path class="cls-3" d="M166.35,782.68v-36.33h5.58v36.33h-5.58Z"/>
      <path class="cls-3" d="M179.24,782.68v-25.88h5.18v3.55h.3c.74-1.25,1.85-2.29,3.32-3.12,1.47-.83,3.09-1.24,4.85-1.24,3.18,0,5.56.94,7.16,2.82,1.59,1.88,2.39,4.39,2.39,7.54v16.34h-5.43v-15.63c0-2.1-.53-3.63-1.57-4.59-1.05-.96-2.42-1.45-4.11-1.45-1.32,0-2.47.36-3.45,1.09-.98.73-1.75,1.68-2.31,2.87-.56,1.18-.84,2.45-.84,3.81v13.9h-5.48Z"/>
      <path class="cls-3" d="M205.63,756.8h16.34v4.77h-16.34v-4.77ZM210.15,775.17v-25.68h5.48v24.51c0,1.29.26,2.27.79,2.94.52.68,1.41,1.01,2.66,1.01.61,0,1.15-.09,1.62-.28.47-.19.95-.41,1.42-.69v5.33c-.58.24-1.18.42-1.83.56-.64.13-1.4.2-2.28.2-2.4,0-4.31-.7-5.73-2.11-1.42-1.4-2.13-3.34-2.13-5.81Z"/>
      <path class="cls-3" d="M238.06,783.49c-2.54,0-4.8-.59-6.8-1.78-2-1.18-3.56-2.81-4.69-4.87-1.13-2.06-1.7-4.42-1.7-7.05,0-2.47.54-4.75,1.62-6.85,1.08-2.1,2.6-3.78,4.54-5.05,1.94-1.27,4.19-1.9,6.72-1.9,2.67,0,4.95.58,6.83,1.73,1.88,1.15,3.31,2.72,4.29,4.72.98,2,1.47,4.25,1.47,6.75,0,.37,0,.71-.03,1.01-.02.3-.04.54-.08.71h-22.28v-4.11h16.95c-.03-.64-.2-1.33-.51-2.06-.3-.73-.74-1.4-1.32-2-.58-.61-1.3-1.11-2.18-1.5-.88-.39-1.91-.58-3.1-.58-1.49,0-2.81.38-3.96,1.14-1.15.76-2.05,1.82-2.69,3.17-.64,1.35-.96,2.93-.96,4.72,0,1.96.37,3.6,1.12,4.92.74,1.32,1.73,2.32,2.94,2.99,1.22.68,2.54,1.01,3.96,1.01,1.73,0,3.17-.4,4.34-1.19,1.17-.79,2.09-1.78,2.77-2.97l4.52,2.18c-1.12,2.03-2.64,3.68-4.57,4.95-1.93,1.27-4.33,1.9-7.21,1.9Z"/>
      <path class="cls-3" d="M255.41,782.68v-25.88h5.18v3.81h.3c.41-.88.99-1.66,1.75-2.33.76-.68,1.64-1.22,2.64-1.62,1-.41,2.04-.61,3.12-.61.71,0,1.31.04,1.8.13.49.09.94.21,1.34.38v5.68c-.64-.27-1.29-.49-1.95-.66-.66-.17-1.34-.25-2.06-.25-1.29,0-2.43.35-3.43,1.04-1,.69-1.78,1.62-2.36,2.77-.58,1.15-.86,2.44-.86,3.86v13.7h-5.48Z"/>
      <path class="cls-3" d="M275.76,782.68v-25.88h5.18v3.55h.3c.74-1.25,1.85-2.29,3.32-3.12,1.47-.83,3.09-1.24,4.85-1.24,3.18,0,5.56.94,7.16,2.82,1.59,1.88,2.39,4.39,2.39,7.54v16.34h-5.43v-15.63c0-2.1-.53-3.63-1.57-4.59-1.05-.96-2.42-1.45-4.11-1.45-1.32,0-2.47.36-3.45,1.09-.98.73-1.75,1.68-2.31,2.87-.56,1.18-.84,2.45-.84,3.81v13.9h-5.48Z"/>
      <path class="cls-3" d="M313.06,783.49c-1.86,0-3.51-.37-4.95-1.12-1.44-.74-2.57-1.77-3.4-3.07-.83-1.3-1.24-2.8-1.24-4.49,0-1.86.48-3.43,1.45-4.72.96-1.29,2.26-2.27,3.88-2.94,1.62-.68,3.42-1.01,5.38-1.01,1.08,0,2.09.08,3.02.23.93.15,1.74.33,2.44.53.69.2,1.24.42,1.65.66v-1.37c0-1.69-.61-3.04-1.83-4.06-1.22-1.01-2.79-1.52-4.72-1.52-1.32,0-2.57.3-3.76.89-1.18.59-2.13,1.4-2.84,2.41l-3.76-2.89c.74-1.05,1.65-1.94,2.72-2.69,1.07-.74,2.27-1.32,3.6-1.73,1.34-.41,2.73-.61,4.19-.61,3.76,0,6.65.92,8.68,2.77,2.03,1.84,3.04,4.42,3.04,7.74v16.19h-5.33v-3.2h-.3c-.44.68-1.04,1.32-1.8,1.93-.76.61-1.66,1.11-2.69,1.5-1.03.39-2.17.58-3.43.58ZM314.02,779.03c1.42,0,2.68-.34,3.78-1.01,1.1-.68,1.95-1.56,2.56-2.66.61-1.1.91-2.29.91-3.58-.74-.44-1.65-.8-2.72-1.09-1.07-.29-2.19-.43-3.37-.43-2.23,0-3.82.44-4.77,1.32-.95.88-1.42,1.98-1.42,3.3,0,1.22.46,2.22,1.37,2.99.91.78,2.13,1.17,3.65,1.17Z"/>
      <path class="cls-3" d="M330.37,756.8h16.34v4.77h-16.34v-4.77ZM334.88,775.17v-25.68h5.48v24.51c0,1.29.26,2.27.79,2.94.52.68,1.41,1.01,2.66,1.01.61,0,1.15-.09,1.62-.28.47-.19.95-.41,1.42-.69v5.33c-.58.24-1.18.42-1.83.56-.64.13-1.4.2-2.28.2-2.4,0-4.31-.7-5.73-2.11-1.42-1.4-2.13-3.34-2.13-5.81Z"/>
      <path class="cls-3" d="M355.38,753c-1.02,0-1.89-.36-2.61-1.09-.73-.73-1.09-1.6-1.09-2.61s.36-1.92,1.09-2.61c.73-.69,1.6-1.04,2.61-1.04s1.93.35,2.64,1.04c.71.69,1.07,1.57,1.07,2.61s-.36,1.89-1.07,2.61c-.71.73-1.59,1.09-2.64,1.09ZM352.64,782.68v-25.88h5.48v25.88h-5.48Z"/>
      <path class="cls-3" d="M376.8,783.49c-2.64,0-4.97-.61-7-1.83-2.03-1.22-3.62-2.87-4.77-4.95-1.15-2.08-1.73-4.41-1.73-6.98s.58-4.9,1.73-6.98c1.15-2.08,2.74-3.73,4.77-4.95,2.03-1.22,4.38-1.83,7.05-1.83s4.97.62,7,1.85c2.03,1.24,3.62,2.88,4.77,4.95,1.15,2.06,1.73,4.38,1.73,6.95s-.58,4.9-1.73,6.98c-1.15,2.08-2.74,3.73-4.77,4.95-2.03,1.22-4.38,1.83-7.05,1.83ZM376.85,778.47c1.42,0,2.74-.35,3.96-1.04,1.22-.69,2.21-1.69,2.97-2.99.76-1.3,1.14-2.87,1.14-4.69s-.38-3.39-1.14-4.69c-.76-1.3-1.75-2.3-2.97-2.99-1.22-.69-2.54-1.04-3.96-1.04s-2.75.35-3.98,1.04c-1.24.69-2.23,1.69-2.99,2.99-.76,1.3-1.14,2.87-1.14,4.69s.38,3.39,1.14,4.69c.76,1.3,1.77,2.3,3.02,2.99,1.25.69,2.57,1.04,3.96,1.04Z"/>
      <path class="cls-3" d="M394.86,782.68v-25.88h5.18v3.55h.3c.74-1.25,1.85-2.29,3.32-3.12,1.47-.83,3.09-1.24,4.85-1.24,3.18,0,5.56.94,7.16,2.82,1.59,1.88,2.38,4.39,2.38,7.54v16.34h-5.43v-15.63c0-2.1-.53-3.63-1.57-4.59-1.05-.96-2.42-1.45-4.11-1.45-1.32,0-2.47.36-3.45,1.09-.98.73-1.75,1.68-2.31,2.87-.56,1.18-.84,2.45-.84,3.81v13.9h-5.48Z"/>
      <path class="cls-3" d="M432.16,783.49c-1.86,0-3.51-.37-4.95-1.12-1.44-.74-2.57-1.77-3.4-3.07-.83-1.3-1.24-2.8-1.24-4.49,0-1.86.48-3.43,1.45-4.72.96-1.29,2.26-2.27,3.88-2.94,1.62-.68,3.42-1.01,5.38-1.01,1.08,0,2.09.08,3.02.23.93.15,1.74.33,2.44.53.69.2,1.24.42,1.65.66v-1.37c0-1.69-.61-3.04-1.83-4.06s-2.79-1.52-4.72-1.52c-1.32,0-2.57.3-3.76.89-1.18.59-2.13,1.4-2.84,2.41l-3.76-2.89c.74-1.05,1.65-1.94,2.71-2.69,1.07-.74,2.27-1.32,3.6-1.73,1.34-.41,2.73-.61,4.19-.61,3.76,0,6.65.92,8.68,2.77,2.03,1.84,3.05,4.42,3.05,7.74v16.19h-5.33v-3.2h-.3c-.44.68-1.04,1.32-1.8,1.93s-1.66,1.11-2.69,1.5c-1.03.39-2.17.58-3.43.58ZM433.13,779.03c1.42,0,2.68-.34,3.78-1.01,1.1-.68,1.95-1.56,2.56-2.66.61-1.1.91-2.29.91-3.58-.74-.44-1.65-.8-2.71-1.09-1.07-.29-2.19-.43-3.38-.43-2.23,0-3.82.44-4.77,1.32-.95.88-1.42,1.98-1.42,3.3,0,1.22.46,2.22,1.37,2.99.91.78,2.13,1.17,3.65,1.17Z"/>
      <path class="cls-3" d="M451.8,782.68v-36.33h5.48v36.33h-5.48Z"/>
      <path class="cls-3" d="M480.93,782.68l-9.74-36.33h6.19l5.79,23.6.61,3.15h.3l.76-3.15,7.31-23.6h5.58l7,23.6.76,3.1h.3l.61-3.1,5.79-23.6h6.14l-9.59,36.33h-5.89l-6.95-24.1-.81-3.4h-.3l-.86,3.4-7.26,24.1h-5.73Z"/>
      <path class="cls-3" d="M531.63,783.49c-2.64,0-4.97-.61-7-1.83-2.03-1.22-3.62-2.87-4.77-4.95-1.15-2.08-1.73-4.41-1.73-6.98s.58-4.9,1.73-6.98c1.15-2.08,2.74-3.73,4.77-4.95,2.03-1.22,4.38-1.83,7.05-1.83s4.97.62,7,1.85c2.03,1.24,3.62,2.88,4.77,4.95,1.15,2.06,1.73,4.38,1.73,6.95s-.58,4.9-1.73,6.98c-1.15,2.08-2.74,3.73-4.77,4.95-2.03,1.22-4.38,1.83-7.05,1.83ZM531.68,778.47c1.42,0,2.74-.35,3.96-1.04,1.22-.69,2.21-1.69,2.97-2.99.76-1.3,1.14-2.87,1.14-4.69s-.38-3.39-1.14-4.69c-.76-1.3-1.75-2.3-2.97-2.99-1.22-.69-2.54-1.04-3.96-1.04s-2.75.35-3.98,1.04c-1.24.69-2.23,1.69-2.99,2.99-.76,1.3-1.14,2.87-1.14,4.69s.38,3.39,1.14,4.69c.76,1.3,1.77,2.3,3.02,2.99,1.25.69,2.57,1.04,3.96,1.04Z"/>
      <path class="cls-3" d="M549.69,782.68v-25.88h5.18v3.55h.3c.51-.85,1.17-1.59,1.98-2.23.81-.64,1.73-1.16,2.77-1.55,1.03-.39,2.11-.58,3.22-.58,1.93,0,3.57.46,4.92,1.37,1.35.91,2.32,2.06,2.89,3.45.85-1.35,2-2.49,3.45-3.43,1.45-.93,3.23-1.4,5.33-1.4,3.05,0,5.31.92,6.8,2.77,1.49,1.84,2.23,4.29,2.23,7.33v16.59h-5.43v-15.68c0-2.1-.45-3.62-1.34-4.57-.9-.95-2.14-1.42-3.73-1.42-1.25,0-2.35.35-3.3,1.04-.95.69-1.68,1.63-2.21,2.82-.53,1.18-.79,2.5-.79,3.96v13.85h-5.43v-15.68c0-2.06-.46-3.58-1.37-4.54-.91-.96-2.2-1.45-3.86-1.45-1.18,0-2.24.36-3.17,1.07-.93.71-1.66,1.66-2.18,2.84-.53,1.18-.79,2.5-.79,3.96v13.8h-5.48Z"/>
      <path class="cls-3" d="M606.78,783.49c-2.54,0-4.8-.59-6.8-1.78-2-1.18-3.56-2.81-4.69-4.87-1.13-2.06-1.7-4.42-1.7-7.05,0-2.47.54-4.75,1.62-6.85,1.08-2.1,2.6-3.78,4.54-5.05,1.94-1.27,4.19-1.9,6.72-1.9,2.67,0,4.95.58,6.83,1.73,1.88,1.15,3.31,2.72,4.29,4.72.98,2,1.47,4.25,1.47,6.75,0,.37,0,.71-.03,1.01-.02.3-.04.54-.08.71h-22.28v-4.11h16.95c-.03-.64-.2-1.33-.51-2.06-.3-.73-.74-1.4-1.32-2-.58-.61-1.3-1.11-2.18-1.5-.88-.39-1.91-.58-3.1-.58-1.49,0-2.81.38-3.96,1.14-1.15.76-2.05,1.82-2.69,3.17-.64,1.35-.96,2.93-.96,4.72,0,1.96.37,3.6,1.12,4.92.74,1.32,1.73,2.32,2.94,2.99,1.22.68,2.54,1.01,3.96,1.01,1.73,0,3.17-.4,4.34-1.19,1.17-.79,2.09-1.78,2.77-2.97l4.52,2.18c-1.12,2.03-2.64,3.68-4.57,4.95-1.93,1.27-4.33,1.9-7.21,1.9Z"/>
      <path class="cls-3" d="M624.14,782.68v-25.88h5.18v3.55h.3c.74-1.25,1.85-2.29,3.32-3.12,1.47-.83,3.09-1.24,4.85-1.24,3.18,0,5.56.94,7.16,2.82,1.59,1.88,2.39,4.39,2.39,7.54v16.34h-5.43v-15.63c0-2.1-.53-3.63-1.57-4.59-1.05-.96-2.42-1.45-4.11-1.45-1.32,0-2.47.36-3.45,1.09-.98.73-1.75,1.68-2.31,2.87-.56,1.18-.84,2.45-.84,3.81v13.9h-5.48Z"/>
      <path class="cls-3" d="M651.8,756.65l2.79-3.86c-.74-.17-1.39-.56-1.93-1.17-.54-.61-.81-1.37-.81-2.28,0-1.05.37-1.94,1.12-2.69.74-.74,1.64-1.12,2.69-1.12.54,0,1.04.1,1.5.3.46.2.85.47,1.19.81.34.34.61.74.81,1.19.2.46.3.96.3,1.5,0,.41-.06.8-.18,1.17-.12.37-.28.74-.48,1.09-.2.36-.42.74-.66,1.14l-3.81,5.58-2.54-1.67Z"/>
      <path class="cls-3" d="M671.94,783.49c-2.06,0-3.86-.31-5.38-.94-1.52-.63-2.77-1.47-3.75-2.54-.98-1.07-1.71-2.22-2.18-3.48l4.92-2.13c.61,1.39,1.48,2.44,2.61,3.17,1.13.73,2.44,1.09,3.93,1.09,1.35,0,2.52-.24,3.5-.74.98-.49,1.47-1.29,1.47-2.41,0-.71-.23-1.29-.69-1.75-.46-.46-1.07-.84-1.83-1.14-.76-.3-1.63-.57-2.61-.81l-3.1-.71c-1.22-.3-2.38-.79-3.48-1.45-1.1-.66-1.99-1.5-2.66-2.51-.68-1.01-1.01-2.22-1.01-3.6,0-1.56.45-2.9,1.34-4.03.9-1.13,2.11-2,3.63-2.61,1.52-.61,3.16-.91,4.92-.91,1.62,0,3.1.21,4.44.63,1.34.42,2.5,1.05,3.5,1.88,1,.83,1.78,1.85,2.36,3.07l-4.72,2.13c-.58-1.15-1.35-1.95-2.33-2.41-.98-.46-2.05-.69-3.2-.69-1.29,0-2.36.26-3.22.79-.86.52-1.29,1.21-1.29,2.06s.38,1.57,1.14,2.08c.76.51,1.7.91,2.82,1.22l3.76.91c2.57.64,4.5,1.62,5.79,2.92,1.29,1.3,1.93,2.88,1.93,4.74,0,1.66-.47,3.1-1.42,4.34-.95,1.24-2.23,2.18-3.83,2.84-1.61.66-3.39.99-5.35.99Z"/>
      <path class="cls-3" d="M700.06,782.68v-36.33h11.62c3.82,0,7.11.77,9.87,2.31,2.76,1.54,4.89,3.68,6.39,6.42,1.5,2.74,2.26,5.89,2.26,9.44s-.75,6.7-2.26,9.44c-1.51,2.74-3.64,4.88-6.39,6.42-2.76,1.54-6.05,2.31-9.87,2.31h-11.62ZM705.64,777.41h5.89c2.74,0,5.09-.52,7.05-1.55,1.96-1.03,3.45-2.51,4.47-4.44,1.01-1.93,1.52-4.23,1.52-6.9s-.51-4.97-1.52-6.9c-1.01-1.93-2.5-3.41-4.47-4.44-1.96-1.03-4.31-1.55-7.05-1.55h-5.89v25.78Z"/>
      <path class="cls-3" d="M743.8,783.49c-1.86,0-3.51-.37-4.95-1.12-1.44-.74-2.57-1.77-3.4-3.07-.83-1.3-1.24-2.8-1.24-4.49,0-1.86.48-3.43,1.45-4.72.96-1.29,2.26-2.27,3.88-2.94,1.62-.68,3.42-1.01,5.38-1.01,1.08,0,2.09.08,3.02.23.93.15,1.74.33,2.44.53.69.2,1.24.42,1.65.66v-1.37c0-1.69-.61-3.04-1.83-4.06s-2.79-1.52-4.72-1.52c-1.32,0-2.57.3-3.76.89-1.18.59-2.13,1.4-2.84,2.41l-3.76-2.89c.74-1.05,1.65-1.94,2.71-2.69,1.07-.74,2.27-1.32,3.6-1.73,1.34-.41,2.73-.61,4.19-.61,3.76,0,6.65.92,8.68,2.77,2.03,1.84,3.05,4.42,3.05,7.74v16.19h-5.33v-3.2h-.3c-.44.68-1.04,1.32-1.8,1.93s-1.66,1.11-2.69,1.5c-1.03.39-2.17.58-3.43.58ZM744.76,779.03c1.42,0,2.68-.34,3.78-1.01,1.1-.68,1.95-1.56,2.56-2.66.61-1.1.91-2.29.91-3.58-.74-.44-1.65-.8-2.71-1.09-1.07-.29-2.19-.43-3.38-.43-2.23,0-3.82.44-4.77,1.32-.95.88-1.42,1.98-1.42,3.3,0,1.22.46,2.22,1.37,2.99.91.78,2.13,1.17,3.65,1.17Z"/>
      <path class="cls-3" d="M771.3,781.92l-11.11-25.12h6.09l7.41,17.66h.61l-2.99,7.46ZM771.71,792.38c-.1.24-.21.48-.33.74-.12.25-.2.43-.23.53h-5.84c.17-.37.41-.9.74-1.57.32-.68.63-1.35.94-2.03.2-.44.41-.91.63-1.42.22-.51.46-1.03.71-1.57.25-.54.5-1.07.74-1.57l3.7-8.17,1.17-2.84,7.16-17.66h6.04l-13.4,30.85c-.24.57-.5,1.18-.79,1.83-.29.64-.54,1.23-.76,1.75-.22.52-.38.9-.48,1.14Z"/>
      <path class="cls-3" d="M801.85,782.68v-5.18c1.39-1.39,2.61-2.61,3.68-3.68,1.07-1.07,2.19-2.19,3.38-3.37,1.18-1.18,2.28-2.3,3.3-3.35,1.01-1.05,1.79-1.88,2.33-2.49.95-.98,1.7-1.84,2.26-2.59.56-.74.96-1.48,1.22-2.21.25-.73.38-1.55.38-2.46,0-.85-.22-1.66-.66-2.44-.44-.78-1.09-1.4-1.95-1.88-.86-.47-1.9-.71-3.12-.71s-2.19.25-3.02.74c-.83.49-1.48,1.09-1.95,1.8-.47.71-.81,1.42-1.01,2.13l-4.92-2.03c.24-.81.63-1.67,1.19-2.56.56-.9,1.29-1.74,2.21-2.54.91-.79,2-1.45,3.27-1.95,1.27-.51,2.71-.76,4.34-.76,2.27,0,4.24.47,5.91,1.4,1.67.93,2.97,2.15,3.88,3.65.91,1.51,1.37,3.17,1.37,5,0,1.46-.27,2.85-.81,4.19-.54,1.34-1.23,2.58-2.06,3.73-.83,1.15-1.72,2.18-2.66,3.1-.34.34-.72.71-1.14,1.12-.42.41-.87.85-1.34,1.34-.47.49-.97,1-1.5,1.52-.53.53-1.08,1.08-1.68,1.67-.59.59-1.19,1.19-1.8,1.8s-1.24,1.24-1.88,1.88l.05.15h15.22v4.97h-22.48Z"/>
      <path class="cls-3" d="M843.57,783.49c-2.17,0-4.12-.47-5.86-1.4-1.74-.93-3.24-2.22-4.49-3.88-1.25-1.66-2.21-3.59-2.87-5.79-.66-2.2-.99-4.58-.99-7.16s.33-4.91.99-7.1c.66-2.2,1.61-4.12,2.87-5.76,1.25-1.64,2.74-2.93,4.47-3.86,1.73-.93,3.69-1.4,5.89-1.4s4.17.47,5.91,1.4c1.74.93,3.24,2.22,4.49,3.86,1.25,1.64,2.21,3.56,2.87,5.76.66,2.2.99,4.57.99,7.1s-.33,4.96-.99,7.16c-.66,2.2-1.62,4.13-2.87,5.79-1.25,1.66-2.75,2.95-4.49,3.88-1.74.93-3.71,1.4-5.91,1.4ZM843.62,778.32c1.79,0,3.34-.57,4.64-1.73,1.3-1.15,2.3-2.71,2.99-4.67.69-1.96,1.04-4.16,1.04-6.6s-.35-4.69-1.04-6.65c-.69-1.96-1.69-3.51-2.99-4.64-1.3-1.13-2.85-1.7-4.64-1.7s-3.38.57-4.67,1.7c-1.29,1.13-2.28,2.68-2.97,4.64-.69,1.96-1.04,4.18-1.04,6.65s.35,4.64,1.04,6.6c.69,1.96,1.68,3.52,2.97,4.67,1.29,1.15,2.84,1.73,4.67,1.73Z"/>
      <path class="cls-3" d="M862.24,782.68v-5.18c1.39-1.39,2.61-2.61,3.68-3.68,1.07-1.07,2.19-2.19,3.38-3.37,1.18-1.18,2.28-2.3,3.3-3.35,1.01-1.05,1.79-1.88,2.33-2.49.95-.98,1.7-1.84,2.26-2.59.56-.74.96-1.48,1.22-2.21.25-.73.38-1.55.38-2.46,0-.85-.22-1.66-.66-2.44-.44-.78-1.09-1.4-1.95-1.88-.86-.47-1.9-.71-3.12-.71s-2.19.25-3.02.74c-.83.49-1.48,1.09-1.95,1.8-.47.71-.81,1.42-1.01,2.13l-4.92-2.03c.24-.81.63-1.67,1.19-2.56.56-.9,1.29-1.74,2.21-2.54.91-.79,2-1.45,3.27-1.95,1.27-.51,2.71-.76,4.34-.76,2.27,0,4.24.47,5.91,1.4,1.67.93,2.97,2.15,3.88,3.65.91,1.51,1.37,3.17,1.37,5,0,1.46-.27,2.85-.81,4.19-.54,1.34-1.23,2.58-2.06,3.73-.83,1.15-1.72,2.18-2.66,3.1-.34.34-.72.71-1.14,1.12-.42.41-.87.85-1.34,1.34-.47.49-.97,1-1.5,1.52-.53.53-1.08,1.08-1.68,1.67-.59.59-1.19,1.19-1.8,1.8s-1.24,1.24-1.88,1.88l.05.15h15.22v4.97h-22.48Z"/>
      <path class="cls-3" d="M901.52,783.49c-1.62,0-3.26-.33-4.9-.99-1.64-.66-3.1-1.68-4.36-3.07-1.27-1.39-2.17-3.16-2.72-5.33l4.92-1.93c.44,1.83,1.26,3.32,2.46,4.47,1.2,1.15,2.71,1.73,4.54,1.73,1.93,0,3.53-.62,4.8-1.85,1.27-1.23,1.9-2.82,1.9-4.74s-.61-3.53-1.83-4.8c-1.22-1.27-2.83-1.9-4.82-1.9-1.15,0-2.2.25-3.15.74-.95.49-1.73,1.16-2.33,2l-5.38-2.39,2.08-17.46h18.78v4.97h-14.26l-1.32,9.34.3.05c.74-.61,1.63-1.12,2.66-1.55,1.03-.42,2.26-.63,3.68-.63,1.96,0,3.78.49,5.46,1.47,1.67.98,3.03,2.34,4.06,4.09,1.03,1.74,1.55,3.75,1.55,6.01s-.53,4.24-1.57,6.01c-1.05,1.78-2.48,3.18-4.29,4.21-1.81,1.03-3.9,1.55-6.27,1.55Z"/>
    </g>
  </g>
  <g>
    <path class="cls-3" d="M494.48,261.98h-41.02c-1.66,0-3.01-1.35-3.01-3.01V114.6c0-1.66,1.34-3.01,3.01-3.01h41.02c1.66,0,3.01,1.35,3.01,3.01v12.78c0,1.66-1.35,3.01-3.01,3.01h-22.22c-1.66,0-3.01,1.35-3.01,3.01v106.67c0,1.66,1.35,3.01,3.01,3.01h22.22c1.66,0,3.01,1.35,3.01,3.01v12.89c0,1.66-1.34,3.01-3.01,3.01Z"/>
    <path class="cls-3" d="M585.71,111.59h40.84c1.65,0,2.99,1.35,2.99,3.01v144.37c0,1.66-1.34,3.01-2.99,3.01h-40.84c-1.65,0-2.99-1.35-2.99-3.01v-12.78c0-1.66,1.34-3.01,2.99-3.01h22.13c1.65,0,2.99-1.35,2.99-3.01v-106.67c0-1.66-1.34-3.01-2.99-3.01h-22.13c-1.65,0-2.99-1.35-2.99-3.01v-12.89c0-1.66,1.34-3.01,2.99-3.01Z"/>
    <g>
      <path class="cls-3" d="M563.91,185.18l-7.4-10.97c-.12.64-.33,1.27-.66,1.84l-.04.06-14.08,21.29,22.42,33.79c1.16,2.05,2.47,2.56,4.22,2.59.02,0,.03,0,.05,0h19.17c2.49,0,4.51-2.02,4.51-4.51v-2.36l-28.2-41.73h0Z"/>
      <path class="cls-3" d="M592.11,144.31c0-2.49-2.02-4.51-4.51-4.51h-19.17c-2.49,0-4.53,2.11-4.51,4.51v37.51l28.2,41.73v-79.24Z"/>
      <path class="cls-3" d="M516.84,144.31c0-2.49-2.02-4.51-4.51-4.51h-19.17c-2.49,0-4.51,2.02-4.51,4.51v79.64l28.2-41.6v-38.04Z"/>
      <path class="cls-3" d="M554.01,170.44c-.2-.35-.44-.68-.7-.99-.85-.89-2.06-1.46-3.47-1.46h-18.39c-1.82,0-3.28.97-4.36,2.6l-9.81,14.44-28.64,42.26v1.97c0,.63.15,1.2.42,1.71.7,1.64,2.25,2.8,4.44,2.8h18.83s.01,0,.02,0h.42c1.82,0,3.31-.96,4.36-2.59l23.48-35.49h0s13.62-20.59,13.62-20.59c.75-1.37.67-3.15-.22-4.66Z"/>
    </g>
  </g>
  <g>
    <polygon class="cls-7" points="829.19 282.65 829.2 282.65 829.2 282.65 829.19 282.65"/>
    <polygon class="cls-7" points="825.69 281.5 825.69 281.5 825.69 281.5 825.69 281.5"/>
    <path class="cls-7" d="M835.17,263.67c.17-.62.46-.99,1.17-.68.96.37,1.73,1.08,2.45,1.77l.93,1.14c.31.37.53.79.81,1.17h0s.07.08.07.08h0c.6,1.06,1.4,2.01,1.72,3.16.53,1.99,1.03,4.02.58,6.05-.5,2.18-.97,4.49-2.43,6.39-.22.28-.43.56-.66.83l-.76.75c-.47.53-1.09.91-1.65,1.35-.58.4-1.21.72-1.83,1.05-.65.24-1.29.57-1.98.71-2.29.63-4.72.68-6.95.07-1.57-.4-2.93-1.31-4.2-2.21-.45-.36-.99-.59-1.4-1.01-.51-.47-1.11-.81-1.19-1.72-.09-.71-.87-1.2-1.3-1.86-.28-.45-.47-.97-.7-1.44-.21-.49-.36-1.01-.6-1.48-.24-.5-.28-1.07-.41-1.6-.12-.54-.17-1.06-.46-1.58h0c-.05-.63.14-1.27.03-1.9-.09-1.43.56-2.75,1.17-3.92,1.64-3.38,4.09-6.14,7.16-8.13.57-.41,1.19-.74,1.79-1.14.63-.33,1.26-.71,1.96-.95h0c1.11-.38,1.97.7,2.59,1.62.67,1,.42,1.85-.25,2.12-1.33.54-2.45,1.31-3.63,1.96-1.08.57-2.21,1.21-3.05,2.16-.44.48-.88.96-1.29,1.47h0c-.1-.05-.1-.02-.04.05h0c-.78.58-1.05,1.51-1.35,2.34-.21.44-.42.86-.74,1.29-.24.3.04.82-.03,1.21-.1,1.23.02,2.47.38,3.59.11.26.19.53.28.79h-.01c-.11.44.33.63.5.93.09.19.19.38.32.56.17.21.29.46.54.6.56.28.82.76,1.14,1.28.03.06.15.03.23.04h0c.11.05.22.11.33.15,0,0,.03,0,.04,0l-.05.08c.33.39.82.56,1.3.7l.11.25h0s0-.01,0-.01h0s.01,0,.02,0c0,0,0,.01,0,.02.29.15.62.24.94.31.32.07.61.23.89.41h0c.36.12.72.32,1.09.39h0c.04.09.09.22.19.02h0s.18-.06.18-.06l.07-.17c.25.05.5.07.71.35h0c.07-.07.13-.19.17.01,0,0,0,0,0,.01v-.02c.31-.04.61-.02.9-.11h0c.19-.15.33-.24.55.14.18.29.28-.42.5-.16h0s.04,0,.05-.01h0c.39-.09.79-.15,1.15-.32l.56-.2.51-.29h0c.63.09,1.04-.22,1.47-.51.34-.4.68-.78.94-1.24.65-.93,1.04-2.07,1.17-3.25.11-.46.03-.95.05-1.41h0c-.09-.07-.12-.13.01-.19h.02s0,0,0,0c0-.38.04-.83-.11-1.13-.31-.51-.3-1.02-.51-1.49-.16-.52-.42-.97-.61-1.45-.28-.42-.5-.88-.85-1.2-.1-.11-.22-.21-.35-.28-.15-.05-.3-.1-.46-.13-.26-.05-.12-.33.17-.73.57-.79.74-1.33.12-1.55-.08-.03-.18-.07-.26-.14-.09-.05-.17-.12-.21-.23-.08-.22-.04-.59.38-1.18.21-.29,0-.33-.12-.4-.68-.43-.15-1.24.05-1.88ZM824.35,281.03l.03-.22c-.03.07-.06.13-.09.19,0,.01.03.02.05.02ZM827.59,282.59l.07-.11-.08.04v.07ZM829.25,282.87l-.11-.04.09.12.02-.08ZM831.14,283.03l-.16-.1.14.19.02-.09ZM837.99,275.63l-.04.02h.02s.01-.01.02-.02Z"/>
  </g>
  <g>
    <polygon class="cls-6" points="754.46 199.66 754.46 199.67 754.46 199.67 754.46 199.66"/>
    <polygon class="cls-6" points="754.94 191.43 754.93 191.43 754.93 191.44 754.94 191.43"/>
    <path class="cls-6" d="M796.15,211.83c.63.14.96.54.46,1.78-.73,1.63-1.78,3.08-2.98,4.34-1.21,1.26-2.57,2.3-3.95,3.28h.01s-.16.12-.16.12h0c-1.87,1.15-3.7,2.4-5.78,3.04-3.62,1.09-7.39,1.83-11.15,1.23-4.1-.65-8.35-1.71-11.86-4.27-2.09-1.51-3.92-3.4-5.38-5.55-1.39-2.08-2.51-4.2-3.48-6.46-1.61-3.79-2.81-7.86-2.91-12.19-.04-3,.59-6.07,1.87-8.92.45-1.04.94-2.09,1.59-3.04.38-.58.8-1.11,1.24-1.63.5-.46,1.01-.94,1.73-1.2,1.14-.48,2.34-1.79,3.68-2.48,1.84-.95,3.8-1.47,5.69-2.05,1.97-.53,4-.55,5.93-1.09h-.01c1.16-.08,2.32.07,3.46-.05.66-.02,1.32,0,1.97.05.33.03.65.04.97.1l.97.22c.64.16,1.28.3,1.9.51l1.84.68c3.44,1.31,6.54,3.5,8.85,6.28,2.35,2.76,4.02,5.96,5.24,9.26.97,2.52,1.76,5.1,2.35,7.72h0c.39,2.06-.67,3.38-1.56,4.57-.97,1.3-1.83.8-2.16-.9-.66-3.24-1.59-6.35-2.55-9.37-.87-2.73-1.89-5.42-3.6-7.6-.88-1.1-1.78-2.18-2.85-3.07h.01c.03-.12-.02-.13-.12-.09h0c-1.27-1.53-3.21-2.21-5.03-2.88-.51-.16-1-.34-1.5-.55-.51-.17-1.03-.32-1.56-.52-.71-.31-1.81-.04-2.73-.1-2.91-.1-5.91.11-8.69.76-.64.17-1.28.33-1.91.52h0c-.85.02-1.52.53-2.2.91-.44.19-.86.4-1.27.64-.52.28-.98.65-1.39,1.04-.79.95-1.68,1.68-2.55,2.54-.1.08-.1.27-.14.41h0s-.3.67-.3.67c0,.02,0,.04,0,.06l-.09-.03c-.64.85-.9,1.89-1.11,2.91l-.29.39h0s0,0,0,0v.02s0,.02,0,.03c0,0-.02.01-.03.02-.34,1.4-.25,2.84-.53,4.29h0c-.06.87-.07,1.75-.03,2.64h.01c-.08.15-.18.31.05.43h-.01s.14.36.14.36l.19.08c.08.59.19,1.19.02,1.78h-.01c.11.11.25.21.09.39l-.02-.02.02.03c.16.69.39,1.36.6,2.03h0c.26.42.46.76.21,1.31-.18.42.65.63.5,1.18h0s.02.09.04.13h0c.69,1.87,1.56,3.7,2.57,5.42h.01c.35,1.3.95,2.28,1.75,3.22.83.89,1.79,1.64,2.78,2.35,2.19,1.51,4.78,2.47,7.45,2.91,1.06.19,2.14.25,3.22.26h0c.15-.09.29-.12.43.02l-.02.02h.01c.87.04,1.9.03,2.59-.16,1.21-.33,2.39-.5,3.53-.84,1.2-.38,2.37-.82,3.49-1.36,1.1-.56,2.14-1.21,3.07-1.96.28-.25.56-.52.79-.81.22-.3.44-.6.63-.91.3-.57.66-.51,1.1-.28.44.24.81.36,1.18.27.36-.1.75-.39,1.03-1.05.08-.18.19-.38.32-.57.11-.2.25-.39.41-.53.32-.27.76-.34,1.28.2.25.27.42-.13.52-.37.69-1.43,1.42-.66,2.08-.49ZM755.74,188.62c.09-.04.19-.07.28-.1-.08,0-.16-.02-.24-.01-.02,0-.03.07-.04.11ZM753.97,196.09l.12.08-.06-.14-.06.06ZM754.28,199.91c0-.09-.01-.18-.01-.27l-.07.27h.08ZM755.14,204.32v-.39s-.11.35-.11.35l.11.04ZM773.75,220.73l-.05-.04v.02s.03.01.05.02Z"/>
  </g>
  <g>
    <g>
      <polygon class="cls-2" points="314.29 229.3 314.29 229.31 314.29 229.31 314.29 229.3"/>
      <polygon class="cls-2" points="314.16 222.58 314.16 222.58 314.16 222.59 314.16 222.58"/>
      <path class="cls-2" d="M309.64,272.68c-.64.05-1.09-.12-1.1-.91-.02-2.14.45-4.24.5-6.37h-.01s0-.08,0-.12h0c.13-1.39-.18-2.78-.09-4.16.15-2.44-.11-4.87.18-7.33.33-2.72.09-5.5.24-8.25.18-3.3.08-6.6-.04-9.89-.1-2.79-.32-5.59-.36-8.38-.03-1.94.18-3.89.25-5.83.03-.71-.04-1.42-.02-2.13.03-.86-.1-1.65.44-2.55.45-.74.11-1.88.15-2.85.05-1.34.22-2.68.15-4.01-.08-1.36.23-2.75-.22-4.1h0c.02-.78.15-1.59.04-2.37-.24-1.76.16-3.5.28-5.23.34-4.88.37-9.75.23-14.63-.05-1.87-.31-3.73-.47-5.6h-.01c-.07-1.45,1.08-2.28,2.07-3.1,1.08-.89,1.89-.5,2.07.79.34,2.46.7,4.92.69,7.4-.01,2.25-.25,4.5-.2,6.75.03,1.16-.05,2.32-.08,3.48h0c-.11.04-.09.08,0,.12h0c-.35,1.6-.11,3.22-.14,4.84-.02.87-.13,1.73-.34,2.6-.14.59.16,1.42.16,2.15,0,2.25,0,4.5,0,6.75,0,.52-.02,1.05-.03,1.57h-.01c-.27.64-.01,1.29,0,1.93,0,.39-.05.78-.05,1.17,0,.48-.03.97.07,1.44.22,1.03.11,2.03-.11,3.04-.02.11.08.23.12.35h0c.04.2.07.41.11.62,0,.02.02.03.03.05-.03,0-.06.01-.09.02-.15.88.05,1.75.13,2.62-.06.13-.11.25-.16.38,0,0,0,0,.01,0,0,0,0-.01,0-.02,0,0,0,.01,0,.02,0,0,.02.01.02.02,0,0-.01.01-.02.02.03,1.17.3,2.33.07,3.51,0,0,0,0,0,0-.03.69-.07,1.39-.1,2.08h.01c-.1.11-.21.23,0,.34,0,0-.01,0-.01,0,.04.1.07.2.11.29.06.03.12.05.18.08,0,.47.03.95-.25,1.38,0,0-.01,0-.01,0,.09.1.2.21,0,.32,0,0,0,0-.01-.01,0,0,.01.02.02.02.04.55.09,1.09.13,1.64,0,0,0,0,0,0,.14.36.22.67-.17,1.01-.3.26.41.62.1.99h0s0,.07,0,.1h0c.02,1.54.04,3.08.06,4.63h0c-.66,1.95-.32,3.94-.31,5.91.01,2.15.11,4.31.17,6.46.03.86.09,1.71.13,2.57,0,0,0,0,0,0,.1.11.14.22,0,.34,0,0-.02-.02-.02-.02h0c-.02.71-.05,1.52.08,2.08.22.99.19,1.95.25,2.92.12,2.05.11,4.1.2,6.15.03.65.17,1.3.33,1.93.15.56-.15.74-.64.82-.95.17-1.52.48-1.34,1.59.1.6.1,1.7-1.32,1.32-.35-.09-.3.21-.32.39-.1,1.12-1.07.77-1.74.82ZM313.82,220.15c.07-.06.13-.12.2-.19-.07.03-.14.05-.21.09-.01,0,0,.06.01.1ZM313.95,226.45s.08.04.12.06c-.02-.04-.04-.07-.06-.11-.02.02-.04.03-.06.05ZM314.08,229.48c0-.07.01-.14.02-.21-.03.07-.07.13-.1.2.03,0,.05,0,.08.01ZM314.03,232.97c.04-.1.07-.19.11-.29-.07.08-.13.16-.2.24.03.02.06.03.09.05ZM314.08,254.38s.02-.03.03-.04c0,0-.01,0-.02,0,0,0-.01.02-.02.03Z"/>
    </g>
    <g>
      <line class="cls-3" x1="334.4" y1="188.8" x2="289.17" y2="258.3"/>
      <g>
        <polygon class="cls-2" points="311.24 228.98 311.23 228.99 311.23 228.99 311.24 228.98"/>
        <polygon class="cls-2" points="314.23 224.16 314.22 224.16 314.22 224.17 314.23 224.16"/>
        <path class="cls-2" d="M287.37,257.12c-.56-.31-.86-.68-.5-1.25.97-1.52,2.33-2.75,3.35-4.24h-.01s.04-.06.06-.09h0c.75-.9,1.13-2.06,1.84-2.99,1.25-1.64,2.15-3.51,3.53-5.08,1.53-1.75,2.61-3.84,4-5.7,1.67-2.24,3.11-4.62,4.52-7.02,1.2-2.03,2.3-4.12,3.56-6.12.87-1.39,1.94-2.65,2.9-3.99.35-.49.62-1.02.96-1.51.42-.59.67-1.23,1.54-1.56.72-.28.96-1.27,1.43-1.93.65-.92,1.42-1.77,1.97-2.75.56-1.01,1.45-1.82,1.7-3.02h0c.38-.54.86-1.05,1.13-1.65.61-1.38,1.75-2.38,2.64-3.54,2.53-3.27,4.8-6.69,6.93-10.22.81-1.35,1.46-2.8,2.18-4.21h-.01c.61-1.07,1.96-1.03,3.17-1.06,1.32-.04,1.82.68,1.37,1.69-.84,1.93-1.68,3.86-2.83,5.61-1.04,1.59-2.28,3.05-3.27,4.67-.51.83-1.11,1.61-1.67,2.42h0c-.11-.04-.11,0-.06.08h0c-1.03.95-1.58,2.22-2.35,3.35-.41.6-.91,1.15-1.48,1.65-.39.34-.52,1.09-.86,1.61-1.03,1.6-2.07,3.18-3.12,4.77-.24.37-.5.73-.75,1.09h0c-.52.3-.6.9-.89,1.36-.17.28-.4.52-.58.8-.22.34-.47.67-.6,1.06-.29.85-.84,1.5-1.49,2.09-.07.06-.04.21-.06.31h0c-.07.16-.13.32-.2.49,0,.01,0,.03,0,.05-.03-.01-.06-.03-.09-.04-.54.54-.76,1.27-1.1,1.92-.1.06-.21.12-.31.18,0,0,0,0,0,.01,0,0,0,0,0-.01,0,0,0,0,0,.01,0,0,0,.02,0,.02,0,0-.02,0-.03,0-.51.84-.82,1.82-1.55,2.52,0,0,0,0,0,0-.35.47-.69.95-1.04,1.42h.01c-.13.03-.28.05-.15.25,0,0,0-.01,0-.01-.02.09-.03.18-.05.27.04.05.08.1.12.16-.22.33-.41.69-.85.84,0,0,0-.01,0-.01.02.12.08.26-.14.23,0,0,0-.01,0-.02,0,0,0,.02,0,.03-.22.41-.43.82-.65,1.23,0,0,0,0,0,0-.05.33-.12.59-.61.62-.37.02.06.66-.37.75h0s-.04.05-.05.07h0c-.7,1.1-1.39,2.2-2.09,3.3h0c-1.45,1.02-2.08,2.62-2.98,4.02-.98,1.53-1.89,3.1-2.83,4.66-.37.62-.72,1.26-1.07,1.89,0,0,0,0,0,0,.03.13.01.23-.16.24,0,0,0-.02,0-.02h0c-.34.49-.73,1.05-.89,1.52-.27.82-.74,1.48-1.14,2.2-.84,1.51-1.8,2.96-2.66,4.46-.27.47-.46,1.01-.61,1.55-.13.47-.46.44-.91.23-.88-.4-1.49-.49-1.85.39-.2.48-.7,1.25-1.72.21-.25-.26-.35-.01-.45.11-.6.74-1.25-.04-1.84-.37ZM315.05,222.26c.08,0,.17-.02.25-.02-.07-.02-.14-.04-.22-.05-.01,0-.02.05-.03.08ZM312.26,226.78s.05.07.07.11c0-.04,0-.07,0-.11-.02,0-.05,0-.07,0ZM310.98,228.99s.08-.09.11-.14c-.06.03-.12.06-.18.09.02.02.04.03.06.05ZM309.33,231.44c.07-.05.15-.1.22-.15-.09.02-.18.04-.28.06.02.03.03.06.05.09ZM299.52,246.6s.03,0,.05,0c0,0-.01,0-.02,0-.01,0-.02,0-.03.01Z"/>
      </g>
    </g>
    <g>
      <line class="cls-3" x1="360.93" y1="223.55" x2="262.64" y2="223.55"/>
      <g>
        <polygon class="cls-2" points="306.03 226.05 306.02 226.05 306.02 226.05 306.03 226.05"/>
        <polygon class="cls-2" points="312.75 225.93 312.75 225.93 312.75 225.93 312.75 225.93"/>
        <path class="cls-2" d="M262.65,221.4c-.05-.64.12-1.09.91-1.1,2.14-.02,4.24.45,6.37.5h0s.08-.01.13-.01h0c1.39.14,2.79-.17,4.17-.08,2.44.15,4.87-.11,7.33.18,2.72.33,5.5.09,8.25.24,3.3.18,6.6.08,9.89-.04,2.79-.1,5.59-.32,8.38-.36,1.94-.03,3.89.18,5.83.25.71.03,1.42-.04,2.13-.02.86.03,1.65-.1,2.55.44.74.45,1.88.11,2.85.15,1.34.05,2.68.22,4.01.15,1.36-.08,2.75.23,4.1-.22h0c.79.02,1.6.14,2.38.04,1.76-.24,3.5.16,5.23.28,4.88.34,9.75.37,14.63.23,1.87-.05,3.73-.31,5.6-.47h0c1.46-.08,2.29,1.07,3.1,2.06.89,1.08.5,1.89-.79,2.07-2.46.34-4.92.7-7.4.69-2.25-.01-4.5-.25-6.75-.2-1.16.03-2.32-.05-3.48-.08h0c-.04-.12-.08-.1-.13,0h0c-1.61-.34-3.23-.11-4.84-.14-.87-.02-1.73-.13-2.6-.34-.59-.14-1.42.16-2.15.16-2.25,0-4.5,0-6.75,0-.52,0-1.05-.02-1.57-.03h0c-.64-.28-1.29-.03-1.93-.01-.39,0-.78-.05-1.17-.05-.48,0-.97-.03-1.44.07-1.03.22-2.03.11-3.04-.11-.11-.02-.23.08-.35.12h0c-.21.03-.42.06-.63.1-.02,0-.03.02-.05.03,0-.03-.01-.06-.02-.09-.88-.15-1.75.05-2.62.13-.13-.06-.25-.11-.38-.16,0,0,0,0,0,.01,0,0,.01,0,.02,0,0,0-.01,0-.02,0,0,0-.01.02-.02.02,0,0-.01-.01-.02-.02-1.17.03-2.33.3-3.51.07,0,0,0,0,0,0-.69-.03-1.39-.07-2.08-.1h0c-.12-.09-.23-.2-.34.02,0,0,0-.01,0-.01-.1.04-.2.07-.29.11-.03.06-.05.12-.08.18-.47,0-.95.03-1.38-.25,0,0,0-.01,0-.01-.1.09-.21.2-.32,0,0,0,0,0,.01-.01,0,0-.02.01-.02.02-.55.04-1.09.09-1.64.13,0,0,0,0,0,0-.36.14-.67.22-1.01-.17-.26-.3-.62.41-.99.1h0s-.07,0-.1,0h0c-1.54.01-3.09.03-4.63.05h0c-1.94-.65-3.93-.31-5.91-.3-2.15.01-4.31.11-6.46.17-.86.03-1.71.09-2.57.13,0,0,0,0,0,0-.11.1-.22.14-.34,0,0,0,.02-.02.02-.02h-.01c-.7-.01-1.51-.04-2.07.09-.99.22-1.95.19-2.92.25-2.05.12-4.1.11-6.15.2-.65.03-1.3.17-1.93.33-.56.15-.74-.15-.82-.64-.17-.95-.48-1.52-1.59-1.34-.6.1-1.7.1-1.32-1.32.09-.35-.21-.3-.39-.32-1.12-.1-.77-1.07-.82-1.74ZM315.18,225.58c.06.07.12.13.19.2-.03-.07-.05-.14-.09-.21,0-.01-.06,0-.1.01ZM308.88,225.71s-.04.08-.06.12c.04-.02.07-.04.11-.06-.02-.02-.03-.04-.05-.06ZM305.86,225.84c.07,0,.14.01.21.02-.07-.03-.13-.07-.2-.1,0,.03,0,.05-.01.08ZM302.36,225.8c.1.04.19.07.29.11-.08-.07-.16-.13-.24-.2-.02.03-.03.06-.05.09ZM280.95,225.85s.03.02.04.03c0,0,0-.01,0-.02,0,0-.02-.01-.03-.02Z"/>
      </g>
    </g>
    <g>
      <line class="cls-3" x1="334.4" y1="258.3" x2="289.17" y2="188.8"/>
      <g>
        <polygon class="cls-2" points="307.04 220.85 307.03 220.84 307.03 220.84 307.04 220.85"/>
        <polygon class="cls-2" points="310.24 225.53 310.24 225.53 310.23 225.52 310.24 225.53"/>
        <path class="cls-2" d="M290.97,187.64c.51-.38.97-.51,1.34.05,1,1.5,1.57,3.25,2.52,4.78h0s.04.05.06.08h0c.53,1.06,1.43,1.88,1.99,2.9.99,1.81,2.34,3.38,3.22,5.28.98,2.11,2.46,3.94,3.59,5.97,1.37,2.43,2.97,4.71,4.59,6.97,1.37,1.92,2.84,3.78,4.16,5.73.92,1.36,1.64,2.85,2.47,4.26.3.52.69.98.99,1.49.37.62.85,1.11.81,2.04-.03.77.77,1.39,1.19,2.09.58.97,1.04,2.01,1.72,2.91.69.92,1.08,2.07,2.07,2.77h0c.35.56.61,1.2,1.06,1.69,1.01,1.12,1.47,2.56,2.17,3.85,1.96,3.63,4.18,7.1,6.54,10.47.91,1.29,1.97,2.47,2.97,3.7h0c.73.98.15,2.2-.31,3.31-.5,1.22-1.35,1.39-2.1.57-1.42-1.55-2.85-3.1-3.98-4.86-1.03-1.6-1.86-3.32-2.94-4.88-.55-.81-1.03-1.67-1.53-2.5h.01c.07-.09.04-.11-.06-.09h0c-.45-1.32-1.39-2.34-2.11-3.5-.39-.62-.68-1.29-.91-2.02-.16-.49-.78-.92-1.12-1.43-1.04-1.59-2.07-3.18-3.1-4.78-.24-.37-.47-.75-.7-1.13h0c-.07-.61-.58-.92-.89-1.37-.18-.27-.31-.58-.5-.85-.22-.34-.43-.7-.72-.98-.66-.61-1.03-1.38-1.31-2.21-.03-.09-.17-.12-.26-.18h.01c-.13-.13-.25-.26-.38-.39,0-.01-.03-.01-.05-.02.02-.02.05-.04.07-.07-.28-.71-.85-1.21-1.32-1.78-.01-.12-.02-.24-.04-.36,0,0,0,0-.01,0,0,0,0,0,0,.01,0,0,0,0,0-.01,0,0-.02,0-.03,0,0,0,0-.02,0-.03-.56-.81-1.33-1.48-1.68-2.44,0,0,0,0,0,0-.29-.51-.58-1.02-.88-1.52h0c.03-.12.07-.27-.16-.23,0,0,.01,0,.01,0-.07-.05-.15-.1-.23-.15-.06.01-.13.03-.19.04-.21-.34-.46-.65-.42-1.11,0,0,.01,0,.01,0-.12-.03-.27-.04-.15-.22,0,0,.01,0,.02,0,0,0-.02,0-.03,0-.29-.36-.58-.73-.87-1.09,0,0,0,0,0,0-.28-.18-.49-.35-.32-.81.13-.35-.63-.21-.53-.64h0s-.02-.05-.05-.07h0c-.73-1.08-1.45-2.16-2.18-3.24h0c-.34-1.74-1.54-2.96-2.46-4.35-1-1.52-2.07-2.99-3.12-4.47-.42-.59-.86-1.17-1.29-1.75,0,0,0,0,0,0-.13-.03-.22-.08-.15-.24,0,0,.02,0,.02,0h-.01c-.3-.51-.65-1.09-1.02-1.42-.64-.58-1.06-1.28-1.55-1.93-1.04-1.38-1.98-2.84-3-4.24-.32-.44-.74-.83-1.17-1.18-.38-.31-.22-.6.16-.93.72-.64,1.05-1.17.39-1.85-.36-.37-.86-1.15.5-1.66.34-.13.15-.31.08-.45-.43-.85.54-1.13,1.08-1.53ZM311.64,227.06c-.03.08-.05.16-.08.24.05-.06.1-.12.13-.18,0-.01-.04-.04-.05-.06ZM308.63,222.67s-.09.02-.13.02c.03.01.07.03.1.04,0-.02.02-.05.03-.07ZM307.13,220.61c.03.05.05.11.08.16,0-.07,0-.13,0-.2-.02.01-.05.02-.07.04ZM305.56,218.11c.01.09.03.18.04.27.02-.09.04-.19.06-.28-.03,0-.07,0-.1.01ZM295.67,203v.05s0,0,0-.01c0,0,0-.02,0-.03Z"/>
      </g>
    </g>
  </g>
  <g>
    <g>
      <g>
        <polygon class="cls-7" points="670.6 896.72 670.59 896.72 670.59 896.72 670.6 896.72"/>
        <polygon class="cls-7" points="675.9 896.59 675.9 896.59 675.9 896.59 675.9 896.59"/>
        <path class="cls-7" d="M636.39,892.07c-.04-.64.09-1.09.72-1.1,1.69-.02,3.35.45,5.03.5h0s.07-.01.1-.01h0c1.1.14,2.2-.17,3.29-.08,1.92.15,3.84-.11,5.78.18,2.15.33,4.34.09,6.51.24,2.6.18,5.2.08,7.8-.04,2.2-.1,4.41-.32,6.61-.36,1.53-.03,3.07.18,4.6.25.56.03,1.12-.04,1.68-.02.68.03,1.3-.1,2.01.44.59.45,1.49.11,2.25.15,1.05.05,2.11.22,3.16.15,1.08-.08,2.17.23,3.23-.22h0c.63.02,1.26.14,1.87.04,1.39-.24,2.76.16,4.12.28,3.85.34,7.69.37,11.54.23,1.47-.05,2.94-.31,4.41-.47h0c1.15-.08,1.81,1.07,2.45,2.06.7,1.08.4,1.89-.63,2.07-1.94.34-3.88.7-5.84.69-1.78-.01-3.55-.25-5.33-.2-.91.03-1.83-.05-2.74-.08h0c-.03-.12-.07-.1-.1,0h0c-1.27-.34-2.55-.11-3.82-.14-.68-.02-1.36-.13-2.05-.34-.47-.14-1.12.16-1.7.16-1.78,0-3.55,0-5.33,0-.41,0-.83-.02-1.24-.03h0c-.51-.28-1.02-.03-1.52-.01-.31,0-.61-.05-.92-.05-.38,0-.77-.03-1.14.07-.81.22-1.6.11-2.4-.11-.08-.02-.18.08-.28.12h0c-.17.03-.33.06-.5.1-.01,0-.02.02-.04.03,0-.03,0-.06-.02-.09-.7-.15-1.38.05-2.07.13-.1-.06-.2-.11-.3-.16,0,0,0,0,0,.01,0,0,0,0,.01,0,0,0,0,0-.01,0,0,0,0,.02-.02.02,0,0-.01-.01-.02-.02-.92.03-1.84.3-2.77.07,0,0,0,0,0,0l-1.64-.1h0c-.09-.09-.18-.2-.27.02h0c-.08.02-.15.06-.23.1-.02.06-.04.12-.06.18-.37,0-.75.03-1.09-.25,0,0,0-.01,0-.01-.08.09-.16.2-.25,0,0,0,0,0,.01-.01,0,0-.01.01-.02.02-.43.04-.86.09-1.29.13,0,0,0,0,0,0-.28.14-.53.22-.8-.17-.2-.3-.49.41-.78.1h0s-.05,0-.08,0h0c-1.22.01-2.44.03-3.66.05h0c-1.53-.65-3.1-.31-4.66-.3-1.7.01-3.4.11-5.09.17-.68.03-1.35.09-2.03.13h0c-.09.1-.18.14-.27,0,0,0,.01-.02.01-.02h0c-.55-.01-1.19-.04-1.63.09-.78.22-1.54.19-2.3.25-1.61.12-3.23.11-4.85.2-.51.03-1.02.17-1.52.33-.44.15-.58-.15-.65-.64-.13-.95-.38-1.52-1.25-1.34-.48.1-1.34.1-1.04-1.32.07-.35-.17-.3-.31-.32-.88-.1-.61-1.07-.65-1.74ZM677.81,896.25c.05.07.1.13.15.2-.02-.07-.04-.14-.07-.21,0-.01-.05,0-.08.01ZM672.85,896.38s-.03.08-.05.12c.03-.02.06-.04.08-.06-.01-.02-.03-.04-.04-.06ZM670.46,896.51c.06,0,.11.01.17.02-.05-.03-.11-.07-.16-.1,0,.03,0,.05,0,.08ZM667.7,896.47c.08.04.15.07.23.11-.06-.07-.13-.13-.19-.2-.01.03-.03.06-.04.09ZM650.82,896.51l.03.03s0-.01,0-.02c0,0-.02-.01-.02-.02Z"/>
      </g>
      <g>
        <line class="cls-3" x1="702.54" y1="912.05" x2="647.73" y2="876.38"/>
        <g>
          <polygon class="cls-7" points="670.56 894.23 670.56 894.22 670.56 894.22 670.56 894.23"/>
          <polygon class="cls-7" points="674.38 896.56 674.38 896.56 674.38 896.56 674.38 896.56"/>
          <path class="cls-7" d="M648.91,874.58c.32-.55.66-.87,1.11-.59,1.2.76,2.12,1.92,3.28,2.73h0s.05.02.07.03h0c.7.62,1.65.87,2.37,1.44,1.28,1.01,2.78,1.68,3.99,2.81,1.34,1.26,3.02,2.07,4.47,3.2,1.74,1.35,3.63,2.46,5.54,3.56,1.62.93,3.29,1.76,4.87,2.74,1.1.68,2.07,1.56,3.12,2.33.38.28.81.48,1.2.76.46.33.98.51,1.18,1.29.17.65.99.78,1.51,1.16.72.52,1.37,1.16,2.15,1.58.8.43,1.41,1.19,2.41,1.3h0c.43.3.81.7,1.3.89,1.11.44,1.86,1.41,2.76,2.13,2.54,2.05,5.23,3.85,8.03,5.5,1.07.63,2.25,1.1,3.38,1.64h0c.85.46.69,1.72.6,2.85-.1,1.23-.75,1.77-1.57,1.45-1.56-.6-3.13-1.2-4.5-2.11-1.25-.83-2.37-1.84-3.66-2.62-.66-.4-1.27-.88-1.9-1.33h0c.04-.11,0-.11-.07-.05h0c-.71-.87-1.74-1.26-2.62-1.87-.47-.33-.89-.74-1.26-1.22-.26-.33-.88-.39-1.29-.65-1.26-.81-2.51-1.64-3.76-2.46-.29-.19-.57-.4-.86-.6h0c-.21-.47-.71-.49-1.08-.71-.22-.14-.41-.33-.62-.47-.27-.17-.53-.38-.84-.46-.69-.19-1.19-.65-1.64-1.19-.05-.06-.17-.02-.26-.03h0c-.14-.05-.27-.1-.41-.14-.01,0-.03,0-.04,0,.01-.03.03-.06.04-.09-.41-.45-1-.59-1.53-.84-.04-.09-.08-.18-.12-.27,0,0,0,0-.01,0,0,0,0,0,0,0,0,0,0,0,0,0,0,0-.02.01-.02.01,0,0,0-.01,0-.02-.67-.4-1.47-.59-2-1.21,0,0,0,0,0,0-.37-.28-.74-.56-1.11-.84h0c-.01-.11-.01-.25-.19-.11h.01c-.07-.01-.15-.02-.22-.03-.05.04-.1.08-.14.12-.26-.17-.55-.32-.63-.71,0,0,.01,0,.01,0-.1.03-.23.1-.18-.11,0,0,.01,0,.02,0,0,0-.02,0-.02,0-.33-.16-.66-.32-.99-.49,0,0,0,0,0,0-.27-.02-.49-.05-.47-.51.02-.34-.57.12-.6-.28h0s-.03-.03-.06-.04h0c-.87-.55-1.74-1.09-2.62-1.64h0c-.72-1.26-2.02-1.69-3.12-2.4-1.21-.77-2.46-1.48-3.7-2.2-.49-.29-1-.55-1.51-.82,0,0,0,0,0,0-.12.04-.2.04-.19-.13,0,0,.02,0,.02,0h-.01c-.38-.27-.81-.58-1.2-.68-.67-.17-1.19-.55-1.76-.85-1.21-.64-2.35-1.4-3.54-2.06-.38-.21-.81-.33-1.26-.42-.39-.08-.33-.39-.11-.83.43-.86.56-1.45-.15-1.7-.39-.14-1-.53-.02-1.59.24-.26.05-.33-.05-.41-.57-.49.15-1.18.49-1.76ZM675.92,897.15c0,.08,0,.16,0,.23.02-.07.05-.14.06-.21,0-.01-.04-.02-.06-.03ZM672.34,894.97s-.07.05-.1.08c.03,0,.06,0,.09-.01,0-.02,0-.05,0-.07ZM670.58,893.99s.07.06.11.09c-.02-.05-.04-.1-.06-.16-.02.02-.03.04-.05.06ZM668.65,892.68c.03.07.07.13.1.2,0-.08-.02-.17-.03-.25-.03.02-.05.04-.08.06ZM656.69,884.95s0,.03,0,.04c0,0,0-.01,0-.02,0-.01,0-.02,0-.03Z"/>
        </g>
      </g>
      <g>
        <line class="cls-3" x1="675.14" y1="932.97" x2="675.14" y2="855.45"/>
        <g>
          <polygon class="cls-7" points="672.63 889.68 672.63 889.67 672.63 889.67 672.63 889.68"/>
          <polygon class="cls-7" points="672.76 894.98 672.76 894.98 672.76 894.97 672.76 894.98"/>
          <path class="cls-7" d="M677.29,855.47c.64-.04,1.09.09,1.1.72.02,1.69-.45,3.35-.5,5.03h.01s0,.06,0,.1h0c-.13,1.1.18,2.19.09,3.28-.15,1.92.11,3.84-.18,5.78-.33,2.15-.09,4.34-.24,6.51-.18,2.6-.08,5.2.04,7.8.1,2.2.32,4.41.36,6.61.03,1.53-.18,3.07-.25,4.6-.03.56.04,1.12.02,1.68-.03.68.1,1.3-.44,2.01-.45.59-.11,1.49-.15,2.25-.05,1.05-.22,2.11-.15,3.16.08,1.08-.23,2.17.22,3.23h0c-.02.62-.15,1.25-.04,1.87.24,1.39-.16,2.76-.28,4.12-.34,3.85-.37,7.69-.23,11.54.05,1.47.31,2.94.47,4.41h.01c.07,1.14-1.08,1.8-2.07,2.44-1.08.7-1.89.4-2.07-.63-.34-1.94-.7-3.88-.69-5.84.01-1.78.25-3.55.2-5.33-.03-.91.05-1.83.08-2.74h0c.11-.03.09-.06,0-.09h0c.35-1.27.11-2.54.14-3.82.02-.68.13-1.36.34-2.05.14-.47-.16-1.12-.16-1.7,0-1.78,0-3.55,0-5.33,0-.41.02-.83.03-1.24h.01c.27-.51.01-1.02,0-1.52,0-.31.05-.61.05-.92,0-.38.03-.77-.07-1.14-.22-.81-.11-1.6.11-2.4.02-.08-.08-.18-.12-.28h0c-.04-.16-.07-.32-.11-.49,0-.01-.02-.02-.03-.04.03,0,.06,0,.09-.02.15-.7-.05-1.38-.13-2.07.06-.1.11-.2.16-.3,0,0,0,0-.01,0,0,0,0,0,0,.01,0,0,0,0,0-.01,0,0-.02,0-.02-.02,0,0,.01-.01.02-.02-.03-.92-.3-1.84-.07-2.77,0,0,0,0,0,0l.1-1.64h-.01c.1-.09.21-.18,0-.27,0,0,.01,0,.01,0-.04-.08-.07-.15-.11-.23-.06-.02-.12-.04-.18-.06,0-.37-.03-.75.25-1.09,0,0,.01,0,.01,0-.09-.08-.2-.16,0-.25,0,0,0,0,.01.01,0,0-.01-.01-.02-.02-.04-.43-.09-.86-.13-1.29,0,0,0,0,0,0-.14-.28-.22-.53.17-.8.3-.2-.41-.49-.1-.78h0s0-.06,0-.08h0c-.02-1.21-.04-2.43-.06-3.65h0c.66-1.54.32-3.11.31-4.66-.01-1.7-.11-3.4-.17-5.09-.03-.68-.09-1.35-.13-2.03,0,0,0,0,0,0-.1-.09-.14-.18,0-.27,0,0,.02.01.02.01h0c.02-.56.05-1.2-.08-1.64-.22-.78-.19-1.54-.25-2.3-.12-1.61-.11-3.23-.2-4.85-.03-.51-.17-1.02-.33-1.52-.15-.44.15-.58.64-.65.95-.13,1.52-.38,1.34-1.25-.1-.48-.1-1.34,1.32-1.04.35.07.3-.17.32-.31.1-.88,1.07-.61,1.74-.65ZM673.1,896.89c-.07.05-.13.1-.2.15.07-.02.14-.04.21-.07.01,0,0-.05-.01-.08ZM672.97,891.92l-.12-.05s.04.06.06.08c.02-.01.04-.03.06-.04ZM672.84,889.54c0,.06-.01.11-.02.17.03-.05.07-.11.1-.16-.03,0-.05,0-.08,0ZM672.89,886.78c-.04.08-.07.15-.11.23.07-.06.13-.13.2-.19-.03-.01-.06-.03-.09-.04ZM672.84,869.9s-.02.02-.03.03c0,0,.01,0,.02,0,0,0,.01-.02.02-.02Z"/>
        </g>
      </g>
      <g>
        <line class="cls-3" x1="647.73" y1="912.05" x2="702.54" y2="876.38"/>
        <g>
          <polygon class="cls-7" points="676.98 890.03 676.98 890.02 676.98 890.02 676.98 890.03"/>
          <polygon class="cls-7" points="673.3 892.57 673.3 892.57 673.3 892.57 673.3 892.57"/>
          <path class="cls-7" d="M703.71,878.18c.37.52.53.96.09,1.25-1.18.79-2.61,1.16-3.83,1.9h0s-.05.04-.07.05h0c-.85.38-1.46,1.15-2.27,1.58-1.44.76-2.66,1.86-4.19,2.5-1.7.71-3.12,1.92-4.73,2.79-1.94,1.05-3.72,2.33-5.5,3.63-1.5,1.1-2.94,2.3-4.48,3.34-1.07.73-2.26,1.26-3.39,1.91-.41.23-.77.55-1.18.79-.49.29-.87.69-1.66.56-.66-.11-1.11.59-1.67.91-.77.45-1.61.78-2.31,1.33-.72.56-1.66.81-2.16,1.67h0c-.45.27-.97.46-1.35.83-.85.84-2.04,1.13-3.07,1.66-2.9,1.49-5.64,3.23-8.28,5.12-1.01.72-1.91,1.61-2.87,2.42h.01c-.78.59-1.87-.07-2.86-.6-1.08-.59-1.31-1.4-.69-2.03,1.18-1.18,2.36-2.37,3.75-3.26,1.26-.81,2.64-1.43,3.87-2.29.63-.44,1.32-.8,1.98-1.2h0c.08.08.1.05.07-.04h0c1.09-.3,1.86-1.08,2.78-1.64.49-.3,1.04-.51,1.63-.66.41-.1.71-.65,1.11-.91,1.25-.82,2.51-1.63,3.77-2.45.29-.19.6-.36.89-.54h0c.51,0,.73-.45,1.08-.69.21-.15.46-.24.68-.38.27-.18.56-.33.76-.58.45-.56,1.07-.83,1.75-1.01.07-.02.09-.15.13-.23h0c.1-.1.2-.2.29-.31,0,0,0-.03,0-.04.02.02.04.05.06.07.58-.19.95-.68,1.39-1.06.1,0,.2,0,.3,0,0,0,0,0,0-.01,0,0,0,0,0,0,0,0,0,0,0,0,0,0,0-.02,0-.02,0,0,.01,0,.02,0,.64-.45,1.14-1.1,1.92-1.34,0,0,0,0,0,0l1.21-.67h0c.12.03.24.08.19-.14,0,0,0,.01,0,.01.04-.07.07-.13.11-.2-.02-.06-.04-.12-.05-.18.26-.17.51-.37.91-.29,0,0,0,.01,0,.01.01-.11,0-.25.17-.12,0,0,0,.01,0,.02,0,0,0-.02,0-.02.28-.24.56-.47.84-.71,0,0,0,0,0,0,.13-.24.25-.43.66-.22.31.15.12-.57.5-.44h0s.04-.02.06-.04h0c.85-.57,1.7-1.15,2.55-1.72h0c1.44-.16,2.37-1.17,3.46-1.89,1.19-.79,2.34-1.65,3.51-2.49.46-.33.91-.69,1.36-1.04,0,0,0,0,0,0,0-.12.05-.2.19-.12,0,0,0,.02,0,.02h0c.4-.24.87-.52,1.11-.83.43-.55.99-.87,1.49-1.27,1.08-.84,2.23-1.58,3.32-2.4.34-.26.63-.61.89-.98.23-.33.49-.14.81.24.61.74,1.1,1.1,1.62.55.28-.3.89-.7,1.46.63.14.33.28.17.39.12.68-.32,1.01.62,1.41,1.16ZM672.14,893.74c-.07-.03-.14-.07-.21-.1.05.05.11.1.16.14.01,0,.03-.03.05-.05ZM675.58,891.34s-.02-.08-.03-.12c0,.03-.02.06-.03.09.02.01.04.02.06.03ZM677.19,890.14s-.09.04-.13.06c.06,0,.11,0,.17,0l-.04-.07ZM679.17,888.91l-.22.02c.08.03.16.05.24.08,0-.03-.01-.06-.02-.09ZM691.08,881.1h-.04s0,0,.01,0c0,0,.02,0,.03,0Z"/>
        </g>
      </g>
    </g>
    <g class="cls-5">
      <polygon class="cls-1" points="339.11 932.32 339.12 932.33 339.12 932.33 339.11 932.32"/>
      <polygon class="cls-1" points="338.1 930.29 338.09 930.29 338.09 930.29 338.1 930.29"/>
      <path class="cls-1" d="M399.35,903.89c-1.51-.69-3.12-1.53-5.05-.71h.02c-2.43,1.15-4.83,2.38-7.31,3.4-6.48,2.66-13.04,5.13-19.73,7.26-2.37.76-4.87,1.2-7.14,2.37-1,.52-2.13.79-3.21,1.17h.02c-1.62,1.19-3.6,1.57-5.4,2.35-1.75.77-3.63,1.26-5.44,1.9-1.31.46-2.69,1.42-3.88,1.3-1.43-.14-2.44.41-3.6.82-.48.17-.95.37-1.42.56l-.83.33-1.28.48c-2.75.97-5.5,1.95-8.26,2.93,1.42,1.65,2.91,3.36,4.45,5.05,3.06,3.35,3.76,4.01,5.32,5.61l4.22,4.31c3.29,3.42,6.55,6.85,9.57,10.52,2.52,3.05,5.4,5.82,7.74,8.99,2.1,2.85,4.68,5.24,6.9,7.96,1.25,1.54,2.87,2.78,4.09,4.37h-.01s.12.14.12.14h0c2.01,2.3,3.62,4.91,5.7,7.18.77.84,1.33.66,1.85.1.55-.59,1.73-.99.75-2.27-.16-.21-.5-.49-.1-.67,1.61-.73.56-1.9-.11-2.46-1.23-1.04-1.03-1.82-.35-2.76.35-.48.44-.91-.23-1.38-.76-.54-1.51-1.12-2.15-1.79-2.05-2.11-4.02-4.31-6.1-6.4-.98-.98-1.88-2.04-3.03-2.92-.66-.5-1.41-1.38-2.07-2.14h-.02s.03,0,.03,0c.02-.24-.13-.32-.32-.36h0s-2.59-2.64-2.59-2.64c-2.14-2.24-4.29-4.46-6.38-6.75-1.91-2.09-4.13-3.94-5.42-6.54h-.01s-4.52-4.9-4.52-4.9h0s-.07-.06-.1-.1h0c-.08-.64-1.05-.46-1.03-.97.02-.68-.36-.94-.82-1.21h0s-1.7-1.65-1.7-1.65h-.04s.03,0,.03,0c.07-.27-.14-.29-.31-.33h.02c-.16-.68-.65-1.16-1.11-1.67l-.24.06-.38-.23h.02c-.29.06-.33-.18-.32-.34h0s-.49-.71-.49-.71h-.01c.01-.2-.14-.33-.4-.54.11-.1.22-.23.45-.34.02,0,.04.01.04.01,0,0-.01-.01-.02-.02h0s0,0,0,0h0s.35.06.35.06c.11-.09.21-.22.37-.34l.13-.08.07-.03.21-.08c.29-.11.6-.21.91-.28l.07.09s.03-.05.05-.06l.8-.44h0c.14-.09.27-.27.42-.3,1.45-.28,2.84-.67,4.13-1.44.59-.35,1.26-.57,1.9-.82.52-.2,1.07-.34,1.59-.54.86-.34,1.61-.96,2.59-.99h0s2.12-.76,2.12-.76l9.07-3.46c.98-.38,1.97-1.13,2.82-1.28,1.25-.22,2.46-.53,3.63-.96,2.18-.8,4.26-1.89,6.56-2.33h0c.02-.12.06-.17.17-.07h0c1.57-.55,3.16-1.06,4.7-1.69,3.01-1.21,6.12-2.11,9.15-3.25,3.33-1.26,6.49-2.92,9.64-4.57,1.66-.87,1.83-1.96.18-2.71ZM363.09,959.16v.07s0-.03,0-.05v-.02ZM342.42,936.44l-.13.02-.06-.41.19.4ZM339.09,932.67l-.08.05-.11-.29.19.24ZM337.54,931.08l.12.03h-.2s.08-.03.08-.03ZM339.43,929.34s.11-.07.13-.06c.07.06.14.12.21.19l-.33-.12Z"/>
      <polygon class="cls-1" points="436.83 942.98 436.84 942.97 436.83 942.97 436.83 942.98"/>
      <polygon class="cls-1" points="433 948.4 433 948.4 433.01 948.39 433 948.4"/>
      <path class="cls-1" d="M468.59,915.32c.52-.57.23-1.06-.35-1.55-.62-.51-1.22-1.55-2.05-.83-.14.12-.29.38-.54.03-.98-1.42-1.72-.63-2.03-.11-.58.95-1.29.72-2.24.08-.49-.33-.87-.43-1.12.09-.28.6-.58,1.19-.98,1.7-1.27,1.59-2.64,3.1-3.84,4.74-.57.77-1.23,1.47-1.66,2.38-.25.52-.78,1.12-1.24,1.63v.02s0-.02,0-.02c-.2-.02-.24.09-.22.25h0s-1.51,2.05-1.51,2.05c-1.31,1.68-2.54,3.42-3.87,5.07-1.22,1.51-2.1,3.32-3.91,4.34h0s-2.75,3.67-2.75,3.67h0s-.03.05-.06.07h0c-.52.07-.06.86-.5.85-.58-.01-.68.29-.77.67h0s-.86,1.38-.86,1.38v.03s0-.02,0-.02c-.25-.05-.2.11-.18.26v-.02c-.53.13-.78.54-1.06.91l.13.19-.07.31h0c.14.23-.04.24-.2.26h.01s-1.32,1.58-1.32,1.58h0c-.91.78-1.34,1.89-1.99,2.84-.01,0-.03,0-.03,0,0,0,0,.02,0,.03h0s0,0,0,0v.02s-.37.19-.37.19c-.43.75-.73,1.59-1.39,2.19l-.1-.05s0,.04,0,.06l-.26.58h0c-.03.11,0,.28-.09.35-.79.66-1.49,1.38-1.85,2.36-.17.45-.48.83-.75,1.22-.22.32-.5.59-.71.91-.35.53-.47,1.22-1.1,1.56h-.01c-.31.41-.63.82-.92,1.25l-3.74,5.53c-.39.61-.55,1.49-1,1.89-.67.59-1.25,1.23-1.74,1.93-.91,1.32-1.5,2.85-2.7,3.98h0c.07.09.07.14-.06.11h0c-.64.95-1.33,1.87-1.88,2.89-1.08,1.97-2.5,3.73-3.58,5.71-1.24,2.15-2.01,4.54-2.74,6.92-.4,1.25.3,2,1.85,1.79,1.42-.19,3.01-.3,3.58-1.58h-.02c.62-1.7,1.28-3.41,2.09-5.03,2.17-4.22,4.7-8.26,7.59-12.05,1.04-1.34,2.36-2.49,3.06-4.09.32-.7.88-1.27,1.34-1.89h-.01c.29-1.38,1.35-2.3,2.02-3.45.66-1.12,1.59-2.07,2.38-3.11.57-.75.88-1.89,1.73-2.18,1.03-.33,1.36-1.05,1.88-1.71.42-.55.77-1.15,1.2-1.69,1.17-1.49,2.51-2.86,3.61-4.4,1.58-2.22,3.04-4.53,4.59-6.77,1.85-2.63,3.74-5.24,5.93-7.61,1.81-1.98,3.31-4.25,5.32-6.04,1.79-1.62,3.11-3.6,4.78-5.29.95-.95,1.58-2.19,2.59-3.11h0s.08-.08.08-.08h-.01c1.4-1.53,3.21-2.63,4.59-4.17ZM431.89,950.67c-.08-.02-.17-.05-.25-.07h.3s-.03.08-.04.07ZM435.39,945.47v-.13s.09.13.09.13h-.09ZM436.99,943.14l.14-.16.07.07-.21.09ZM438.99,940.42l.28-.15.05.1-.33.05ZM452.37,923.73h-.02s.06,0,.06,0c-.01,0-.02.01-.04,0Z"/>
      <polygon class="cls-1" points="528.52 982.64 528.51 982.64 528.51 982.64 528.52 982.64"/>
      <polygon class="cls-1" points="538.8 978.93 538.78 978.93 538.77 978.93 538.8 978.93"/>
      <path class="cls-1" d="M544.03,975.65l.03.02c-.27-.23-.66-.48-.78-.66-1.16-1.68-2.78-3.69-4.64-5.37l-.49-.46-.36-.37-.69-.77c-.37-.41-.69-.87-1.06-1.27-.62-.67-1.46-1.15-1.83-2.05h0s-1.46-1.7-1.46-1.7l-6.39-7.15c-.69-.77-1.74-1.41-2.18-2.15-.64-1.08-1.35-2.08-2.16-3.01-1.51-1.73-3.25-3.26-4.47-5.24h0c-.12.04-.18,0-.12-.12h.01c-1.07-1.25-2.11-2.54-3.23-3.74-2.18-2.35-4.1-4.91-6.23-7.3-2.34-2.63-4.99-4.95-7.62-7.28-1.39-1.23-2.47-.99-2.59.81-.11,1.65-.33,3.44,1.11,4.93v-.02c1.91,1.84,3.9,3.62,5.72,5.55,4.75,5.05,9.33,10.23,13.66,15.65,1.54,1.93,2.82,4.08,4.71,5.75.83.74,1.48,1.69,2.22,2.55h0c1.67,1.05,2.72,2.76,4.08,4.14,1.33,1.35,2.44,2.9,3.67,4.35.44.52,1.01,1.02,1.5,1.53l.32.34c.04.05.08.11.11.17.05.12.07.24,0,.36-.4.51-.19.52-.02.75.02.04.06.07.09.11-.13.05-.23.13-.42.17-.16.03-.33.06-.47.07h-.21c-.07.03.02-.01-.17.05l-.5.14c-1.33.39-2.65.79-3.95,1.25-3.74,1.34-7.4,2.88-11.11,4.29-4.38,1.67-8.76,3.31-13.26,4.64-3.75,1.11-7.38,2.66-11.17,3.56-3.41.81-6.57,2.23-9.91,3.19-1.89.54-3.63,1.54-5.56,2.04h0s-.17.05-.17.05h0c-2.88.95-5.88,1.39-8.75,2.41-1.07.38-1.11.97-.8,1.66.33.73.24,1.98,1.78,1.58.25-.07.64-.26.65.17.05,1.77,1.52,1.26,2.29.87,1.42-.72,2.05-.22,2.65.77.31.51.66.76,1.35.33.78-.48,1.6-.94,2.46-1.27,2.72-1.05,5.48-1.99,8.18-3.08,1.27-.51,2.58-.92,3.82-1.63.71-.41,1.8-.75,2.75-1.05v-.02s0,.03,0,.03c.21.11.34,0,.46-.15h0s3.4-1.34,3.4-1.34c2.86-1.08,5.72-2.18,8.6-3.19,2.64-.93,5.18-2.23,8.05-2.39h0s6.2-2.23,6.2-2.23h0s.09-.03.14-.04h0c.62.18.82-.78,1.29-.57.61.28.99.04,1.42-.28h0s2.15-.91,2.15-.91l.03-.03v.02c.21.17.3-.01.41-.16v.02c.68.12,1.31-.14,1.94-.36l.04-.24.35-.26v.02c.06-.3.26-.22.45-.17h-.01s2.83-.87,2.83-.87h0c.83-.15,1.61-.44,2.38-.76l1.16-.5,1.96-.75s.06,0,.07,0c.01,0,.02-.02.03-.04h.04s-.04,0-.04,0v-.02s1.02-.14,1.02-.14c1.99-.79,3.56-1.59,5.83-2.18l.24.04s.01-.04.05-.05l.18-.08-1.05-1.01ZM494.78,994.05s.04,0,.05,0h.02s-.07,0-.07,0ZM523.49,984.06l.03-.12.4.11h-.43ZM528.21,982.49l-.02-.1.31.02-.29.08ZM532.18,981.1l.03-.16.09.05-.12.12ZM543.76,976.77c.06-.03.15-.08.19-.08.2.02.41.03.61.05l-.8.03Z"/>
    </g>
  </g>
</svg>