<svg version="1.2" xmlns="http://www.w3.org/2000/svg" viewBox="0 0 842 595" width="842" height="595">
	<title>PositivoNEXTdigital-ai</title>
	<style>
		.s0 { fill: #f6a61a } 
		.s1 { fill: #56c3e8 } 
		.s2 { fill: #2a3b46 } 
	</style>
	<g id="Capa 1">
		<g id="&lt;Group&gt;">
			<path id="&lt;Path&gt;" class="s0" d="m67.1 310.8c-5.5 0-10-4.5-10-10.1 0-5.5 4.5-10 10-10 5.6 0 10.1 4.5 10.1 10 0 5.6-4.5 10.1-10.1 10.1z"/>
			<path id="&lt;Path&gt;" class="s1" d="m67.1 276.2c-5.5 0-10-4.5-10-10 0-5.6 4.5-10 10-10 5.6 0 10.1 4.4 10.1 10 0 5.5-4.5 10-10.1 10z"/>
			<path id="&lt;Path&gt;" class="s2" d="m370.4 243.9c-1.2-1.5-2.7-2.2-4.5-2.2h-42v56.9c0 9.3 2.5 16.2 7.4 20.4 4.8 4.1 11.9 6.2 21.1 6.2h5.7c1.8 0 3.4-0.7 4.5-2.1q1.6-2 1.6-4.7 0-2.6-1.6-4.6c-1.1-1.4-2.6-2.1-4.4-2.2h-5.8c-5.3 0-9-0.9-11-2.7-1.9-1.9-2.9-5.3-2.9-10.3v-43.4h27.4c1.8 0 3.3-0.7 4.5-2.1q1.5-2 1.5-4.6 0-2.7-1.5-4.6z"/>
			<path id="&lt;Path&gt;" class="s2" d="m660.6 244.7c-1.2-1.4-2.7-2.2-4.4-2.2h-41.5v56.2c0 9.2 2.5 15.9 7.3 20.1 4.8 4.1 11.8 6.2 20.9 6.2h5.6c1.8 0 3.3-0.7 4.4-2.1q1.6-2 1.6-4.6 0-2.6-1.6-4.6c-1.1-1.4-2.6-2.1-4.3-2.1h-5.7c-5.3 0-9-0.9-10.9-2.8-1.9-1.8-2.9-5.2-2.9-10.1v-42.8h27.1c1.7 0 3.3-0.8 4.4-2.1q1.5-2 1.5-4.6 0-2.6-1.5-4.5z"/>
			<path id="&lt;Path&gt;" class="s2" d="m154.9 251.3c-3.1-3-6.7-5.4-10.8-7.1-4.1-1.7-8.5-2.5-13-2.5h-0.2c-4.5 0-8.9 0.8-13 2.5-4.1 1.7-7.7 4.1-10.8 7.1-3 3-5.4 6.5-7.2 10.4-1.7 3.9-2.6 8.1-2.6 12.5v45.1c0 3.3 2.6 5.9 5.9 5.9h2.6c3.3 0 5.9-2.6 5.9-5.9v-46.3c0-2.5 0.5-4.8 1.6-7 1-2.2 2.4-4.2 4.1-5.8 1.7-1.6 3.8-2.9 6.1-3.9 2.3-0.9 4.8-1.4 7.5-1.4 2.7 0 5.2 0.5 7.5 1.4 2.3 1 4.4 2.3 6.1 3.9 1.7 1.6 3.1 3.6 4.2 5.8 1 2.2 1.5 4.5 1.5 7v46.3c0 3.3 2.7 5.9 5.9 5.9h2.6c3.3 0 5.9-2.6 5.9-5.9v-45.1c0-4.4-0.8-8.6-2.6-12.5-1.8-3.9-4.2-7.4-7.2-10.4z"/>
			<g id="&lt;Group&gt;">
				<path id="&lt;Path&gt;" class="s2" d="m468.4 283.7c0-5.7-1-11-3.1-15.9-2-4.9-4.9-9.3-8.5-12.9-3.5-3.7-7.7-6.6-12.4-8.7-4.8-2.1-9.8-3.2-15-3.2h-20.6c-4.3 0-7.9 3.5-7.9 7.9 0 4.4 3.6 8 7.9 8h21.5c3.5 0 6.7 0.6 9.4 1.9 2.9 1.3 5.4 3.1 7.5 5.4 2.1 2.2 3.8 4.8 5 7.8 1.2 2.9 1.8 6.1 1.8 9.5 0 3.5-0.6 6.7-1.8 9.6-1.2 3-2.9 5.6-5 7.8-2.1 2.3-4.6 4.1-7.4 5.4-2.8 1.2-6 1.9-9.5 1.9h-21.5c-4.3 0-7.9 3.6-7.9 8 0 4.3 3.6 7.9 8 7.9h20.5c5.2 0 10.2-1.1 14.9-3.2 4.8-2.1 9-5 12.5-8.7 3.6-3.6 6.5-8 8.5-12.9 2.1-4.9 3.1-10.2 3.1-15.6z"/>
			</g>
			<g id="&lt;Group&gt;">
				<path id="&lt;Path&gt;" class="s2" d="m564.5 284.1c-4.4 0-8 3.6-8 8v16.1h-13.9c-3.4 0-6.6-0.6-9.4-1.9-2.9-1.3-5.4-3.1-7.5-5.4-2.1-2.2-3.8-4.8-5-7.8-1.2-2.9-1.8-6.1-1.8-9.6 0-3.4 0.6-6.6 1.8-9.5 1.2-3 2.9-5.6 5-7.8 2.1-2.3 4.6-4.1 7.5-5.4 2.8-1.3 5.9-1.9 9.4-1.9h21.5c4.4 0 7.9-3.6 7.9-8 0-4.4-3.6-7.9-7.9-7.9h-20.6c-5.2 0-10.2 1.1-14.9 3.2-4.7 2.1-8.9 5-12.5 8.7-3.6 3.6-6.5 8-8.5 12.9-2 4.9-3.1 10.2-3.1 15.6 0 5.7 1.1 11 3.1 15.9 2 4.9 4.9 9.3 8.5 12.9 3.6 3.7 7.8 6.6 12.5 8.7 4.7 2.1 9.7 3.2 14.9 3.2h22.2c2.8 0 5.3-1.9 6-4.6q0.3-0.9 0.3-1.7c0.3-2 0.4-3.7 0.4-5.2v-20.5c0-4.4-3.6-8-7.9-8z"/>
			</g>
			<path id="&lt;Path&gt;" class="s2" d="m313.9 316q0-0.1 0-0.1-0.1-0.2-0.1-0.3-0.3-0.6-0.7-1.2l-22.4-31.3 22-30.3q0-0.2 0.1-0.3l0.1-0.1c1.1-1.5 1.4-3.3 0.8-5.1q-0.8-2.6-3.1-4.2-2.4-1.6-5.1-1.4c-2 0.2-3.6 1.1-4.6 2.6l-0.1 0.1q-0.3 0.3-0.5 0.6l-19 27.4h-0.1l-19-27.4q-0.2-0.3-0.5-0.6l-0.1-0.1c-1-1.5-2.6-2.4-4.6-2.6q-2.7-0.2-5.1 1.4-2.3 1.6-3.1 4.2c-0.6 1.8-0.3 3.6 0.8 5.1l0.1 0.1q0 0.1 0.1 0.3l22 30.3-22.5 31.3q-0.3 0.6-0.6 1.2 0 0.1-0.1 0.3 0 0 0 0.1c-0.4 1.1-0.5 2.4-0.1 3.7q0.8 2.5 3.2 4.1 2.3 1.6 5 1.4c2-0.1 3.6-1 4.7-2.5v-0.1q0.2-0.2 0.3-0.4l19.5-28h0.1l19.5 28q0.1 0.2 0.3 0.4v0.1c1.1 1.5 2.7 2.4 4.7 2.5q2.7 0.2 5-1.4 2.4-1.6 3.2-4.1c0.4-1.3 0.3-2.6-0.1-3.7z"/>
			<path id="&lt;Compound Path&gt;" fill-rule="evenodd" class="s2" d="m188.7 289.6v3.1c0 6 2.1 10.7 6.4 14.2 4.4 3.5 10 5.3 16.8 5.3 3.1 0 5.6-0.3 7.5-0.9q2.2-0.7 3.9-1.5l6.1-3.4c2.6-1.4 5.9-0.5 7.4 2.1l1.2 2.1c1.4 2.7 0.3 5.8-2.2 7.4 0 0-5.8 4.2-13.5 6-3.2 0.8-6.8 1.2-10.7 1.2-5.4 0-10.3-0.7-14.8-2.3-4.6-1.5-8.5-3.8-11.8-6.7-3.3-2.9-5.9-6.4-7.8-10.4-1.9-4.1-2.8-8.7-2.8-13.6v-18.4c0-4.3 0.9-8.5 2.6-12.4 1.8-3.8 4.2-7.3 7.2-10.2 3-3 6.5-5.3 10.6-7 4-1.7 8.3-2.5 12.8-2.5 4.3 0 8.5 0.8 12.4 2.3 3.9 1.6 7.4 3.8 10.3 6.6 3 2.7 5.4 6.1 7.2 10 1.8 3.9 2.7 8.2 2.7 12.8 0 3.1-0.4 7.2-1.4 9.4q-1.5 3.1-3.9 4.7-2.3 1.5-5.4 1.8-2.7 0.3-5.4 0.3zm0-12.7h31.5c4 0 5.3-0.6 5.6-0.8 0.6-0.3 0.9-1.4 0.9-2.9 0-2.3-0.5-4.6-1.4-6.8-0.9-2.1-2.2-4.2-3.9-5.9-1.6-1.8-3.7-3.2-6-4.2-2.3-1-4.9-1.5-7.7-1.5-2.7 0-5.2 0.5-7.4 1.4-2.3 0.9-4.3 2.2-6 3.8q-2.6 2.4-4.1 5.7c-1 2.2-1.5 4.5-1.5 6.9z"/>
			<path id="&lt;Compound Path&gt;" fill-rule="evenodd" class="s2" d="m720.7 277.9v-3.1c0-6-2.1-10.7-6.4-14.2-4.4-3.6-10-5.3-16.8-5.3-3.1 0-5.6 0.3-7.5 0.9q-2.2 0.6-3.9 1.5l-6.1 3.4c-2.6 1.4-5.9 0.5-7.4-2.2l-1.2-2.1c-1.4-2.6-0.3-5.7 2.1-7.4 0 0 5.9-4.1 13.6-6 3.1-0.7 6.7-1.2 10.7-1.2 5.3 0 10.3 0.8 14.8 2.4 4.6 1.5 8.5 3.8 11.8 6.6 3.3 2.9 5.9 6.5 7.8 10.5 1.8 4.1 2.8 8.6 2.8 13.6v18.4c0 4.3-0.9 8.5-2.6 12.4-1.8 3.8-4.2 7.3-7.2 10.2-3 3-6.5 5.3-10.6 7-4 1.7-8.4 2.5-12.8 2.5-4.3 0-8.5-0.8-12.4-2.3-3.9-1.6-7.4-3.8-10.4-6.6-2.9-2.8-5.3-6.1-7.1-10-1.8-3.9-2.7-8.2-2.7-12.8 0-3.1 0.4-7.2 1.4-9.4q1.4-3.1 3.8-4.7 2.4-1.6 5.5-1.9 2.7-0.2 5.4-0.2zm0 12.7h-31.5c-4 0-5.3 0.5-5.7 0.8-0.5 0.3-0.8 1.4-0.8 2.9 0 2.3 0.5 4.6 1.4 6.7 0.9 2.2 2.2 4.2 3.9 6 1.6 1.7 3.6 3.1 6 4.2 2.3 1 4.9 1.5 7.7 1.5 2.7 0 5.1-0.5 7.4-1.4 2.3-0.9 4.3-2.2 6-3.8q2.6-2.4 4.1-5.7c1-2.2 1.5-4.5 1.5-6.9z"/>
			<path id="&lt;Path&gt;" class="s2" d="m744.2 241.7v57.1c0 9.6 2.6 16.7 7.7 21.1 4.9 4.3 12.3 6.5 21.8 6.5h5.9c1.8 0 3.4-0.8 4.6-2.3q1.7-2 1.7-4.8 0-2.7-1.7-4.8c-1.2-1.4-2.7-2.2-4.6-2.2h-5.9c-5.6 0-9.4-1-11.4-2.9-2-1.9-3-5.4-3-10.6v-57.1z"/>
			<path id="&lt;Path&gt;" class="s2" d="m495.1 315.5v-66.3c0-4.1-3.4-7.5-7.5-7.5-4.2 0-7.6 3.4-7.6 7.5v66.3c0 5.3 3.4 9.6 7.6 9.6 4.1 0 7.5-4.3 7.5-9.6z"/>
			<path id="&lt;Path&gt;" class="s2" d="m599.5 315.5v-66.3c0-4.1-3.4-7.5-7.6-7.5-4.1 0-7.5 3.4-7.5 7.5v66.3c0 5.3 3.4 9.6 7.5 9.6 4.2 0 7.6-4.3 7.6-9.6z"/>
		</g>
	</g>
</svg>