<?xml version="1.0" encoding="UTF-8"?>
<svg id="Capa_4" xmlns="http://www.w3.org/2000/svg" viewBox="0 0 583.12 141.73">
  <defs>
    <style>
      .cls-1 {
        fill: #fff;
      }

      .cls-2 {
        fill: #000b25;
      }
    </style>
  </defs>
  <g>
    <path class="cls-2" d="M166.29,98.43c11.61,0,23.22,0,34.83,0,2.52,0,4.64,1.61,5.3,4.02.13.46.2.93.2,1.41,0,7.86.01,15.73,0,23.59,0,2.57-1.71,4.69-4.18,5.3-.45.11-.9.16-1.36.16-23.18,0-46.36,0-69.54,0-3.1,0-5.53-2.43-5.54-5.53,0-7.8,0-15.61,0-23.41,0-3.32,2.76-5.56,5.58-5.56,11.57.04,23.14.01,34.71.01Z"/>
    <path class="cls-2" d="M166.49,44.76c9.88,0,19.75,0,29.63,0,.42,0,.83-.01,1.24.1,1.42.4,2.32,1.56,2.41,3.13,0,.16,0,.32,0,.48,0,11.68,0,23.37,0,35.05,0,.44-.02.88-.13,1.3-.34,1.36-1.53,2.33-2.93,2.4-.22.01-.44,0-.66,0-19.73,0-39.46,0-59.19,0-.4,0-.8.02-1.19-.08-1.34-.32-2.32-1.45-2.45-2.83-.03-.32-.04-.64-.04-.95,0-11.62,0-23.25,0-34.87,0-.54.01-1.07.19-1.59.42-1.21,1.54-2.06,2.83-2.14.24-.01.48-.01.72-.01,9.86,0,19.71,0,29.57,0Z"/>
    <path class="cls-2" d="M59.48,60.3c-12.8,0-25.61,0-38.41,0-.98,0-1.02-.02-.97-1.01.28-5.31,1.53-10.38,3.91-15.14,5.03-10.05,12.89-16.88,23.57-20.42,4.19-1.39,8.53-1.99,12.94-1.83,10.54.37,19.58,4.27,27.03,11.73,5.72,5.74,9.29,12.66,10.79,20.62.32,1.68.49,3.39.59,5.09,0,.14.02.28.01.42-.02.36-.16.5-.51.53-.18.01-.36,0-.54,0-12.8,0-25.61,0-38.41,0Z"/>
    <path class="cls-2" d="M59.53,64c15.77,0,31.54,0,47.31,0,.34,0,.67-.02,1.01.08,1.27.35,2.12,1.47,2.08,2.86-.1,3.33-1.57,5.91-4.38,7.7-1.44.92-3.04,1.35-4.76,1.35-27.52,0-55.03,0-82.55,0-4.58,0-8.38-3.26-9.1-7.81-.09-.55-.13-1.11-.07-1.67.16-1.42,1.31-2.48,2.73-2.51.18,0,.36,0,.54,0,15.73,0,31.46,0,47.19,0Z"/>
    <path class="cls-2" d="M111.17,130.44c-2.89,0-5.78.06-8.66-.01-5.92-.14-10.33-2.85-13.17-8.03-1.11-2.02-1.61-4.23-1.61-6.54-.01-6.09,0-12.18,0-18.27,0-1.75,1.23-2.96,2.98-2.96,3.29,0,6.57,0,9.86,0,1.84,0,3.02,1.19,3.02,3.03,0,5.23,0,10.47,0,15.7,0,1.12.07,1.19,1.18,1.19,5.26,0,10.51,0,15.77,0,.89,0,1.64.27,2.25.92.51.55.77,1.21.77,1.95,0,3.38.01,6.77,0,10.15,0,1.64-1.25,2.87-2.89,2.87-3.17,0-6.33,0-9.5,0Z"/>
    <path class="cls-2" d="M131.05,65.93c0,3.94,0,7.88,0,11.82,0,.69.08.69-.67.62-5.1-.52-9.8-4.38-10.93-9.95-1.42-6.94,3.13-13.45,9.73-14.82.43-.09.86-.16,1.29-.21.57-.07.57-.05.58.5,0,.12,0,.24,0,.36v11.7Z"/>
    <path class="cls-2" d="M202.02,78.35c-.1-.29-.06-.51-.06-.73,0-7.84,0-15.68,0-23.51,0-.74,0-.76.74-.63,5.32.93,8.82,3.99,10.28,9.16,2,7.04-2.68,14.31-9.89,15.57-.35.06-.71.09-1.08.14Z"/>
    <path class="cls-2" d="M166.36,89.24c4.12,0,8.24,0,12.37,0,.55,0,1.07.07,1.57.29,1.47.63,2.31,2.19,2.03,3.75-.29,1.61-1.6,2.75-3.3,2.86-.18.01-.36,0-.54,0-8.12,0-16.25,0-24.37,0-.3,0-.59-.01-.89-.05-1.51-.18-3.04-1.52-2.95-3.55.08-1.92,1.56-3.29,3.48-3.3,4.2,0,8.4,0,12.6,0Z"/>
    <path class="cls-2" d="M95.93,92.19c-6.89-.08-11.75-5.13-12.54-10.76-.08-.59-.11-1.19-.13-1.78-.01-.45.12-.83.55-1.04.46-.22.88-.15,1.28.17,1.64,1.31,3.43,2.39,5.36,3.22,1.64.7,3.33,1.2,5.12,1.29,1.79.09,3.48-.28,5.12-.94,2.05-.82,3.91-1.96,5.6-3.38.06-.05.12-.11.18-.16.38-.31.8-.44,1.27-.23.47.22.65.61.64,1.11-.05,2.97-1,5.63-2.9,7.91-2.51,3-5.76,4.48-9.56,4.58Z"/>
    <path class="cls-2" d="M59.58,19.26c-2.84.03-5.18-2.3-5.21-5.19-.03-2.87,2.27-5.22,5.15-5.26,2.92-.04,5.3,2.25,5.33,5.13.03,2.96-2.27,5.28-5.27,5.32Z"/>
    <path class="cls-2" d="M166.51,22.54c2.75,0,4.97,2.22,4.98,4.96,0,2.77-2.24,5.04-4.98,5.05-2.78,0-5.06-2.27-5.05-5.05,0-2.76,2.26-4.97,5.05-4.97Z"/>
    <path class="cls-2" d="M167.54,37.21c0,.96,0,1.91,0,2.87,0,.2,0,.39-.07.59-.11.3-.29.47-.62.46-.24,0-.48,0-.72,0-.4-.02-.52-.12-.65-.49-.07-.21-.07-.43-.07-.65,0-1.83,0-3.66,0-5.49,0-.18,0-.36.04-.53.1-.49.27-.62.78-.63.16,0,.32,0,.48,0,.57,0,.79.2.82.78.03.48,0,.96,0,1.43,0,.56,0,1.11,0,1.67Z"/>
    <path class="cls-1" d="M174.7,65.97c0-3.74,3.02-6.75,6.77-6.74,3.73,0,6.75,3.04,6.74,6.78,0,3.72-3.05,6.75-6.78,6.74-3.91-.01-6.8-3.26-6.73-6.78Z"/>
    <path class="cls-1" d="M158.26,66.01c0,3.75-3.01,6.75-6.76,6.74-3.73,0-6.76-3.05-6.76-6.77,0-3.72,3.05-6.75,6.78-6.74,3.75,0,6.74,3.02,6.73,6.77Z"/>
    <path class="cls-1" d="M82.37,44.15c0,.19,0,.31,0,.43.03.71-.31,1.16-.95,1.43-1.41.6-2.82,1.2-4.22,1.8-2.94,1.26-5.88,2.52-8.82,3.78-.15.06-.29.13-.44.18-.72.25-1.41-.02-1.71-.67-.32-.69-.05-1.49.62-1.84.14-.07.29-.13.44-.19,3.45-1.43,6.9-2.87,10.35-4.31.28-.12.66-.17.64-.6-.02-.38-.37-.43-.63-.54-3.44-1.41-6.88-2.82-10.32-4.22-.13-.05-.26-.1-.39-.16-.72-.34-1.03-1.13-.72-1.85.3-.7,1.02-1,1.79-.68,1.93.8,3.85,1.62,5.77,2.44,2.53,1.07,5.05,2.14,7.58,3.2.42.18.76.42.94.85.13.33.05.67.08.93Z"/>
    <path class="cls-1" d="M52.87,37.97c0,.67-.28,1.06-.97,1.35-1.71.7-3.42,1.4-5.13,2.1-1.8.74-3.61,1.47-5.41,2.2-.09.04-.18.08-.28.11-.21.09-.4.2-.41.46,0,.29.2.41.43.5,1.62.67,3.23,1.34,4.85,2.01,1.98.82,3.97,1.64,5.95,2.47.72.3.99.71.97,1.4-.03.99-.9,1.56-1.85,1.19-.72-.28-1.43-.6-2.14-.9-3.73-1.6-7.45-3.2-11.19-4.78-.75-.32-1.09-.82-1.11-1.65-.03-1.57.35-1.77,1.47-2.24,4.23-1.78,8.46-3.57,12.69-5.36.35-.15.69-.31,1.09-.2.65.17,1.04.65,1.04,1.35Z"/>
    <path class="cls-1" d="M56.45,56.75c-.98-.02-1.48-.7-1.27-1.49.37-1.38.76-2.76,1.15-4.14,1.74-6.18,3.48-12.36,5.22-18.54.04-.15.08-.31.13-.46.22-.61.79-.93,1.36-.77.62.17.98.73.81,1.38-.32,1.25-.68,2.49-1.03,3.74-1.77,6.35-3.55,12.71-5.33,19.06-.05.17-.08.35-.16.51-.21.46-.57.7-.89.7Z"/>
  </g>
  <g>
    <path class="cls-2" d="M217.48,111.6c0,1.3,1.07,2.34,2.34,2.34h18.72c3.88,0,7.02,3.14,7.02,7.02s-3.14,7.02-7.02,7.02h-25.74v-4.71h25.74c1.27,0,2.34-1.04,2.34-2.31s-1.07-2.34-2.34-2.34h-18.72c-3.84,0-7.02-3.14-7.02-7.02s3.18-7.02,7.02-7.02h25.74v4.68h-25.74c-1.27,0-2.34,1.07-2.34,2.34Z"/>
    <path class="cls-2" d="M253.61,127.98h-4.71v-18.75h4.71v18.75Z"/>
    <path class="cls-2" d="M263.94,109.3h16.41v4.68h-16.41c-1.27,0-2.31,1.04-2.31,2.31v11.7h-4.68v-11.7c0-3.84,3.14-6.99,6.99-6.99Z"/>
    <path class="cls-2" d="M298.11,127.98h-5.01l-11.07-18.69h5.42l8.16,13.74,8.16-13.74h5.45l-11.1,18.69Z"/>
    <path class="cls-2" d="M315.59,127.98h-4.71v-18.75h4.71v18.75Z"/>
    <path class="cls-2" d="M318.93,121v-4.71c0-3.84,3.18-6.99,7.02-6.99h16.38v4.68h-16.38c-1.27,0-2.31,1.04-2.31,2.31h18.69v4.71h-18.69c0,1.27,1.04,2.34,2.31,2.34h16.38v4.65h-16.38c-3.84,0-7.02-3.11-7.02-6.99Z"/>
    <path class="cls-2" d="M350.32,127.98h-4.65v-18.69h16.35c3.88,0,7.05,3.14,7.05,6.99v11.7h-4.71v-11.7c0-1.27-1.04-2.31-2.34-2.31h-11.7v14.01Z"/>
    <path class="cls-2" d="M391.17,104.62h4.65v23.37h-16.35c-3.91,0-7.05-3.11-7.05-6.99v-4.71c0-3.84,3.14-6.99,7.05-6.99h11.7v-4.68ZM391.17,113.98h-11.7c-1.3,0-2.34,1.04-2.34,2.31v4.71c0,1.27,1.04,2.34,2.34,2.34h11.7v-9.36Z"/>
    <path class="cls-2" d="M422.56,116.28v4.71c0,3.88-3.14,6.99-7.02,6.99h-9.36c-3.88,0-7.02-3.11-7.02-6.99v-4.71c0-3.84,3.14-6.99,7.02-6.99h9.36c3.88,0,7.02,3.14,7.02,6.99ZM415.54,113.98h-9.36c-1.3,0-2.34,1.04-2.34,2.31v4.71c0,1.27,1.04,2.34,2.34,2.34h9.36c1.27,0,2.34-1.07,2.34-2.34v-4.71c0-1.27-1.07-2.31-2.34-2.31Z"/>
    <path class="cls-2" d="M430.58,111.6v9.36c0,1.27,1.07,2.31,2.34,2.31h25.74v4.71h-25.74c-3.88,0-7.02-3.18-7.02-7.02v-9.36c0-3.88,3.14-7.02,7.02-7.02h25.74v4.68h-25.74c-1.27,0-2.34,1.07-2.34,2.34Z"/>
    <path class="cls-2" d="M485.41,116.28v4.71c0,3.88-3.14,6.99-7.02,6.99h-9.36c-3.88,0-7.02-3.11-7.02-6.99v-4.71c0-3.84,3.14-6.99,7.02-6.99h9.36c3.88,0,7.02,3.14,7.02,6.99ZM478.39,113.98h-9.36c-1.3,0-2.34,1.04-2.34,2.31v4.71c0,1.27,1.04,2.34,2.34,2.34h9.36c1.27,0,2.34-1.07,2.34-2.34v-4.71c0-1.27-1.07-2.31-2.34-2.31ZM469.03,103.31l9.36-3.08v3.71l-9.36,3.04v-3.68Z"/>
    <path class="cls-2" d="M507.5,104.62h4.65v23.37h-16.35c-3.91,0-7.05-3.11-7.05-6.99v-4.71c0-3.84,3.14-6.99,7.05-6.99h11.7v-4.68ZM507.5,113.98h-11.7c-1.3,0-2.34,1.04-2.34,2.31v4.71c0,1.27,1.04,2.34,2.34,2.34h11.7v-9.36Z"/>
    <path class="cls-2" d="M520.2,127.98h-4.71v-18.75h4.71v18.75Z"/>
    <path class="cls-2" d="M530.6,109.3h16.35v18.69c0,3.88-3.14,7.05-6.99,7.05h-16.41v-4.71h16.41c1.27,0,2.34-1.04,2.34-2.34h-11.7c-3.88,0-7.05-3.11-7.05-6.99v-4.71c0-3.84,3.18-6.99,7.05-6.99ZM528.26,121c0,1.27,1.04,2.34,2.34,2.34h11.7v-9.36h-11.7c-1.3,0-2.34,1.04-2.34,2.31v4.71Z"/>
    <path class="cls-2" d="M573.69,116.28v4.71c0,3.88-3.14,6.99-7.02,6.99h-9.36c-3.88,0-7.02-3.11-7.02-6.99v-4.71c0-3.84,3.14-6.99,7.02-6.99h9.36c3.88,0,7.02,3.14,7.02,6.99ZM566.67,113.98h-9.36c-1.3,0-2.34,1.04-2.34,2.31v4.71c0,1.27,1.04,2.34,2.34,2.34h9.36c1.27,0,2.34-1.07,2.34-2.34v-4.71c0-1.27-1.07-2.31-2.34-2.31Z"/>
  </g>
</svg>